<svg width="58" height="43" viewBox="0 0 58 43" fill="none" xmlns="http://www.w3.org/2000/svg">
<path d="M4.54346 4.54343C8.45316 4.54343 21.0087 3.76389 32.0642 2.97252C34.8281 2.58274 37.9463 1.80318 41.6964 1.40159C45.4465 1 49.734 1 54.1515 1" stroke="black" stroke-width="2" stroke-linecap="round"/>
<path d="M2.18127 21.0795C4.51994 21.0795 8.84287 21.0795 14.5418 20.6897C17.1226 20.2999 19.0715 19.5203 25.3375 19.1187C31.6035 18.7172 42.1275 18.7172 56.5138 21.0795" stroke="black" stroke-width="2" stroke-linecap="round"/>
<path d="M1 35.2532C1 36.0327 4.11824 36.8241 14.1048 37.4146C31.4972 37.6154 44.289 38.395 48.2163 39.771C50.1947 40.3675 52.1435 40.7573 54.1514 41.1589" stroke="black" stroke-width="2" stroke-linecap="round"/>
</svg>
