<?xml version="1.0" encoding="UTF-8" standalone="no"?>
<!DOCTYPE svg PUBLIC "-//W3C//DTD SVG 1.1//EN" "http://www.w3.org/Graphics/SVG/1.1/DTD/svg11.dtd">
<svg width="100%" height="100%" viewBox="0 0 1980 692" version="1.1" xmlns="http://www.w3.org/2000/svg" xmlns:xlink="http://www.w3.org/1999/xlink" xml:space="preserve" xmlns:serif="http://www.serif.com/" style="fill-rule:evenodd;clip-rule:evenodd;stroke-linecap:round;stroke-linejoin:round;stroke-miterlimit:1.5;">
    <g transform="matrix(1,0,0,1,90,0)">
        <g transform="matrix(0.924369,0,0,1.031492,-81.615236,-29.958381)">
            <path d="M13.233,109.995C16.412,260.558 8.272,260.245 15.544,410.925C15.929,418.9 19.888,469.028 26.671,561.39" style="fill:none;stroke:black;stroke-width:38.3px;"/>
        </g>
        <g transform="matrix(0.924369,0,0,1.031492,-81.615236,-29.958381)">
            <path d="M29.407,542.24L29.407,632.519" style="fill:none;stroke:black;stroke-width:38.3px;"/>
        </g>
        <g transform="matrix(0.924369,0,0,1.031492,-81.615236,-29.958381)">
            <path d="M17.854,118.202C43.396,110.642 90.394,80.714 144.93,129.145C150.215,133.839 232.781,170.49 237.349,197.538C271.673,400.759 201.038,459.417 198.071,487.525C192.816,537.304 106.204,610.557 96.41,618.84C84.311,629.072 65.929,630.047 38.648,646.197" style="fill:none;stroke:black;stroke-width:38.3px;"/>
        </g>
        <g transform="matrix(0.924369,0,0,1.031492,-81.615236,-29.958381)">
            <path d="M329.769,159.238C337.431,186.453 256.234,198.523 211.863,209.065C212.054,213.833 214.245,268.668 214.245,268.668C214.925,303.311 211.864,338.088 214.245,372.626C214.537,376.861 218.297,375.444 223.487,424.605C230.455,490.61 238.727,740.609 265.076,662.613C270.56,646.381 305.167,543.941 369.048,482.055" style="fill:none;stroke:black;stroke-width:38.3px;"/>
        </g>
        <g transform="matrix(0.924369,0,0,1.031492,-81.615236,-29.958381)">
            <path d="M230.418,421.868C238.412,393.469 275.484,375.001 288.18,356.21" style="fill:none;stroke:black;stroke-width:38.3px;"/>
        </g>
        <g transform="matrix(0.924369,0,0,1.031492,-81.615236,-29.958381)">
            <path d="M461.466,118.202C379.784,69.844 338.66,280.871 375.978,263.196C403.845,249.997 427.793,221.351 445.292,304.232C467.924,411.422 445.213,410.462 394.461,503.94C388.3,506.676 382.138,509.411 375.977,512.147" style="fill:none;stroke:black;stroke-width:38.3px;"/>
        </g>
        <g transform="matrix(0.924369,0,0,1.031492,-81.615236,-29.958381)">
            <path d="M512.296,101.787C561.235,-4.751 710.858,278.001 672.995,442.385C646.128,559.03 537.773,495.199 517.286,442.385C438.705,239.816 489.117,156.677 512.297,101.787L512.296,101.787Z" style="fill:none;stroke:black;stroke-width:38.3px;"/>
        </g>
        <g transform="matrix(0.924369,0,0,1.031492,-81.615236,-29.958381)">
            <path d="M679.068,78.406C679.068,78.406 676.167,527.042 679.068,561.39C679.094,561.698 679.068,582.589 679.068,561.39" style="fill:none;stroke:black;stroke-width:38.3px;"/>
        </g>
        <g transform="matrix(0.924369,0,0,1.031492,-81.615236,-29.958381)">
            <path d="M679.068,78.406C712.973,72.161 778.569,108.033 798.796,148.295C817.838,186.198 853.077,263.888 775.691,309.703C750.976,324.335 633.258,332.048 709.056,383.333C735.829,401.448 829.754,497.916 838.074,517.618" style="fill:none;stroke:black;stroke-width:38.3px;"/>
        </g>
        <g transform="matrix(0.924369,0,0,1.031492,-81.615236,-29.958381)">
            <path d="M838.074,78.406C829.305,161.472 861.178,613.371 856.558,637.991" style="fill:none;stroke:black;stroke-width:38.3px;"/>
        </g>
        <g transform="matrix(0.924369,0,0,1.031492,-81.615236,-29.958381)">
            <path d="M827.165,78.406C1022.487,-6.998 1094.658,151.721 1020.601,397.246C967.862,572.095 875.25,626.923 856.557,637.99" style="fill:none;stroke:black;stroke-width:38.3px;"/>
        </g>
        <g transform="matrix(0.924369,0,0,1.031492,-81.615236,-29.958381)">
            <path d="M1156.92,101.787C1124.643,108.157 1086.208,139.702 1080.674,140.087C1068.373,140.944 1055.878,137.811 1043.706,140.087C1035.091,141.698 1041.317,455.388 1052.913,577.058C1110.102,520.397 1108.118,496.894 1216.992,471.111" style="fill:none;stroke:black;stroke-width:38.3px;"/>
        </g>
        <g transform="matrix(0.924369,0,0,1.031492,-81.615236,-29.958381)">
            <path d="M1133.815,254.988C1120.745,251.119 1095.427,298.969 1078.364,312.438C1063.746,323.977 1061.167,318.741 1050.638,334.324" style="fill:none;stroke:black;stroke-width:38.3px;"/>
        </g>
        <g transform="matrix(0.924369,0,0,1.031492,-81.615236,-29.958381)">
            <path d="M1191.577,48.662C1185.506,217.583 1193.031,255.87 1196.198,424.604C1196.388,434.707 1198.509,525.826 1198.509,525.826" style="fill:none;stroke:black;stroke-width:38.3px;"/>
        </g>
        <g transform="matrix(0.924369,0,0,1.174588,-81.615236,-36.921689)">
            <path d="M1191.577,55.28L1194.639,48.662C1207.227,72.262 1295.391,244.383 1344.068,561.39C1338.271,527.073 1308.179,348.918 1383.346,126.409C1386.589,116.809 1385.761,117.585 1387.967,104.523C1389.858,93.327 1389.066,94.116 1390.277,82.637" style="fill:none;stroke:black;stroke-width:38.3px;"/>
        </g>
        <g transform="matrix(0.924369,0,0,1.031492,-81.615236,-29.958381)">
            <path d="M1385.657,564.126C1370.826,552.418 1369.844,373.312 1413.383,235.838C1448.947,123.546 1452.694,126.275 1480.387,11.509C1485.626,81.811 1484.246,80.925 1489.629,151.031C1492.376,186.81 1598.838,628.389 1602.842,648.934C1598.221,636.167 1593.6,623.4 1588.979,610.634" style="fill:none;stroke:black;stroke-width:38.3px;"/>
        </g>
        <g transform="matrix(0.924369,0,0,1.031492,-81.615236,-29.958381)">
            <path d="M1394.899,350.739C1418.021,342.526 1488.073,338.902 1491.939,334.325C1501.18,323.382 1519.386,316.197 1521.975,315.175" style="fill:none;stroke:black;stroke-width:38.3px;"/>
        </g>
        <g transform="matrix(0.924369,0,0,1.031492,-81.615236,-29.958381)">
            <path d="M1600.106,44.337C1594.124,271.663 1589.163,409.664 1589.163,596.954C1586.427,581.452 1583.692,565.949 1580.956,550.447" style="fill:none;stroke:black;stroke-width:38.3px;"/>
        </g>
        <g transform="matrix(0.924369,0,0,1.031492,-81.615236,-29.958381)">
            <path d="M1583.692,55.075C1629.896,39.674 1720.101,49.776 1754.013,109.994C1778.48,153.441 1761.839,246.586 1734.157,263.195C1664.033,305.269 1591.036,301.393 1624.728,320.645C1665.533,343.962 1813.493,504.699 1813.493,514.882C1813.493,515.363 1806.945,516.93 1794.343,487.525" style="fill:none;stroke:black;stroke-width:38.3px;"/>
        </g>
        <g transform="matrix(0.924369,0,0,1.031492,-81.615236,-29.958381)">
            <path d="M1829.908,561.39C1795.336,552.747 1698.428,420.417 1695.857,419.132C1687.203,414.805 1607.558,326.682 1605.578,323.381" style="fill:none;stroke:black;stroke-width:38.3px;"/>
        </g>
        <g transform="matrix(0.981751,0,0,1.076771,73.423634,-60.635786)">
            <path d="M1850.343,17.168C1842.699,65.58 1700.905,632.311 1684.237,698.975" style="fill:none;stroke:black;stroke-width:37.17px;"/>
        </g>
    </g>
</svg>
