<svg xmlns="http://www.w3.org/2000/svg" xml:space="preserve" fill-rule="evenodd" stroke-linecap="round" stroke-linejoin="round" stroke-miterlimit="1.5" clip-rule="evenodd" viewBox="0 0 1980 692"><g fill="none" stroke="#000" transform="translate(90)"><path stroke-width="38.3" d="M13.233 109.995c3.179 150.563-4.961 150.25 2.311 300.93.385 7.975 4.344 58.103 11.127 150.465m2.736-19.15v90.279M17.854 118.202c25.542-7.56 72.54-37.488 127.076 10.943 5.285 4.694 87.851 41.345 92.419 68.393 34.324 203.221-36.311 261.879-39.278 289.987-5.255 49.779-91.867 123.032-101.661 131.315-12.099 10.232-30.481 11.207-57.762 27.357" transform="matrix(.92437 0 0 1.0315 -81.615 -29.958)"/><path stroke-width="38.3" d="M329.769 159.238c7.662 27.215-73.535 39.285-117.906 49.827l2.382 59.603c.68 34.643-2.381 69.42 0 103.958.292 4.235 4.052 2.818 9.242 51.979 6.968 66.005 15.24 316.004 41.589 238.008 5.484-16.232 40.091-118.672 103.972-180.558" transform="matrix(.92437 0 0 1.0315 -81.615 -29.958)"/><path stroke-width="38.3" d="M230.418 421.868c7.994-28.399 45.066-46.867 57.762-65.658m173.286-238.008c-81.682-48.358-122.806 162.669-85.488 144.994 27.867-13.199 51.815-41.845 69.314 41.036 22.632 107.19-.079 106.23-50.831 199.708l-18.484 8.207m136.319-410.36C561.235-4.751 710.858 278.001 672.995 442.385c-26.867 116.645-135.222 52.814-155.709 0-78.581-202.569-28.169-285.708-4.989-340.598z" transform="matrix(.92437 0 0 1.0315 -81.615 -29.958)"/><path stroke-width="38.3" d="M679.068 78.406s-2.901 448.636 0 482.984c.026.308 0 21.199 0 0" transform="matrix(.92437 0 0 1.0315 -81.615 -29.958)"/><path stroke-width="38.3" d="M679.068 78.406c33.905-6.245 99.501 29.627 119.728 69.889 19.042 37.903 54.281 115.593-23.105 161.408-24.715 14.632-142.433 22.345-66.635 73.63 26.773 18.115 120.698 114.583 129.018 134.285m0-439.212c-8.769 83.066 23.104 534.965 18.484 559.585" transform="matrix(.92437 0 0 1.0315 -81.615 -29.958)"/><path stroke-width="38.3" d="M827.165 78.406c195.322-85.404 267.493 73.315 193.436 318.84C967.862 572.095 875.25 626.923 856.557 637.99" transform="matrix(.92437 0 0 1.0315 -81.615 -29.958)"/><path stroke-width="38.3" d="M1156.92 101.787c-32.277 6.37-70.712 37.915-76.246 38.3-12.301.857-24.796-2.276-36.968 0-8.615 1.611-2.389 315.301 9.207 436.971 57.189-56.661 55.205-80.164 164.079-105.947" transform="matrix(.92437 0 0 1.0315 -81.615 -29.958)"/><path stroke-width="38.3" d="M1133.815 254.988c-13.07-3.869-38.388 43.981-55.451 57.45-14.618 11.539-17.197 6.303-27.726 21.886m140.939-285.662c-6.071 168.921 1.454 207.208 4.621 375.942.19 10.103 2.311 101.222 2.311 101.222" transform="matrix(.92437 0 0 1.0315 -81.615 -29.958)"/><path stroke-width="38.3" d="m1191.577 55.28 3.062-6.618c12.588 23.6 100.752 195.721 149.429 512.728-5.797-34.317-35.889-212.472 39.278-434.981 3.243-9.6 2.415-8.824 4.621-21.886 1.891-11.196 1.099-10.407 2.31-21.886" transform="matrix(.92437 0 0 1.17459 -81.615 -36.922)"/><path stroke-width="38.3" d="M1385.657 564.126c-14.831-11.708-15.813-190.814 27.726-328.288 35.564-112.292 39.311-109.563 67.004-224.329 5.239 70.302 3.859 69.416 9.242 139.522 2.747 35.779 109.209 477.358 113.213 497.903l-13.863-38.3" transform="matrix(.92437 0 0 1.0315 -81.615 -29.958)"/><path stroke-width="38.3" d="M1394.899 350.739c23.122-8.213 93.174-11.837 97.04-16.414 9.241-10.943 27.447-18.128 30.036-19.15m78.131-270.838c-5.982 227.326-10.943 365.327-10.943 552.617l-8.207-46.507" transform="matrix(.92437 0 0 1.0315 -81.615 -29.958)"/><path stroke-width="38.3" d="M1583.692 55.075c46.204-15.401 136.409-5.299 170.321 54.919 24.467 43.447 7.826 136.592-19.856 153.201-70.124 42.074-143.121 38.198-109.429 57.45 40.805 23.317 188.765 184.054 188.765 194.237 0 .481-6.548 2.048-19.15-27.357m35.565 73.865c-34.572-8.643-131.48-140.973-134.051-142.258-8.654-4.327-88.299-92.45-90.279-95.751" transform="matrix(.92437 0 0 1.0315 -81.615 -29.958)"/><path stroke-width="37.17" d="M1850.343 17.168c-7.644 48.412-149.438 615.143-166.106 681.807" transform="matrix(.98175 0 0 1.07677 73.424 -60.636)"/></g></svg>