<?xml version="1.0" encoding="UTF-8" standalone="no"?><!DOCTYPE svg PUBLIC "-//W3C//DTD SVG 1.1//EN" "http://www.w3.org/Graphics/SVG/1.1/DTD/svg11.dtd"><svg width="100%" height="100%" viewBox="0 0 1813 809" version="1.1" xmlns="http://www.w3.org/2000/svg" xmlns:xlink="http://www.w3.org/1999/xlink" xml:space="preserve" xmlns:serif="http://www.serif.com/" style="fill-rule:evenodd;clip-rule:evenodd;stroke-linecap:round;stroke-linejoin:round;stroke-miterlimit:1.5;"><g><path d="M118.43,163.259c19.39,-12.352 45.453,-26.553 73.015,-34.574c38.208,-11.12 78.852,-10.33 111.35,17.101c19.385,16.363 36.271,42.777 46.896,83.917c53.766,208.171 9.652,298.695 -1.248,321.715c-33.637,71.037 -67.638,115.996 -99.715,141.094c-24.201,18.935 -47.846,27.26 -70.108,27.76c-33.34,0.748 -64.489,-16.133 -90.882,-46.305c-35.096,-40.122 -62.162,-104.608 -75.642,-175.011c-14.846,-77.537 -13.275,-162.06 10.355,-227.988c16.787,-46.837 44.659,-84.481 84.664,-105.603c3.608,-1.905 7.546,-2.555 11.315,-2.106Zm-21.25,57.151c-16.83,16.796 -29.325,38.727 -38.251,63.632c-21.516,60.032 -22.292,137.025 -8.774,207.627c12.048,62.923 35.382,120.926 66.75,156.785c17.92,20.486 38.208,33.585 60.846,33.077c19.31,-0.433 39.49,-10.689 60.777,-31.617c24.501,-24.088 49.557,-61.573 74.894,-115.08c10.01,-21.14 48.127,-104.271 -1.248,-295.441c-8.029,-31.087 -19.723,-51.632 -34.372,-63.996c-21.959,-18.535 -49.709,-17.02 -75.527,-9.506c-44.827,13.046 -84.962,45.058 -91.688,50.385c-3.949,3.127 -8.744,4.467 -13.406,4.134Z"/><path d="M373.389,707.169c-5.589,-60.913 -9.601,-147.003 1.78,-219.113c4.404,-27.902 20.161,5.71 -7.219,-341.211c-0.841,-10.66 7.13,-19.998 17.791,-20.839c10.66,-0.841 19.998,7.13 20.839,17.791c28.108,356.152 11.386,321.657 6.865,350.301c-19.667,124.607 8.381,273.081 8.098,291.724l-0.623,5.515l-1.949,5.188l-2.995,4.158l-3.727,3.098l-5.767,2.498l-6.36,0.535l-6.064,-1.479l-5.101,-3.123l-4.073,-4.6c-0.76,-1.146 -1.809,-2.993 -2.959,-5.682c-3.06,-7.156 -9.289,-26.307 -20.177,-60.797c-3.112,-9.858 2.079,-20.366 11.641,-23.963Z"/><path d="M382.93,171.938c-5.64,0.791 -11.577,-0.897 -16.029,-5.115c-7.764,-7.353 -8.098,-19.626 -0.745,-27.39l4.668,-3.636l6.187,-2.251c2.787,-0.538 13.999,-0.188 30.276,3.195c34.379,7.147 97.884,26.015 143.813,58.823c34.245,24.462 58.575,56.667 59.74,96.037c1.913,64.646 -12.041,112.748 -38.437,148.686c-29.602,40.302 -75.518,65.695 -135.251,80.809c50.868,21.398 69.76,24.254 145.763,64.382l197.167,104.099c9.456,4.993 13.08,16.723 8.087,26.18c-4.993,9.456 -16.723,13.08 -26.18,8.087l-197.167,-104.099c-97.741,-51.604 -100.42,-41.085 -200.025,-88.894c-7.727,-3.709 -12.099,-12.054 -10.749,-20.518c1.35,-8.464 8.1,-15.036 16.598,-16.157c77.598,-10.242 136.897,-31.043 170.526,-76.828c22.066,-30.042 32.534,-70.558 30.934,-124.6c-0.926,-31.28 -25.026,-54.459 -53.784,-72.51c-48.9,-30.693 -113.368,-45.656 -133.692,-48.128c-0.543,-0.066 -1.18,-0.126 -1.701,-0.171Z"/><path d="M621.39,149.038c0,-10.693 8.682,-19.375 19.375,-19.375c10.693,0 19.375,8.682 19.375,19.375l0,509.34c0,10.693 -8.682,19.375 -19.375,19.375c-10.693,0 -19.375,-8.682 -19.375,-19.375l0,-509.34Z"/><path d="M649.759,164.632c-10.658,-0.866 -18.609,-10.222 -17.743,-20.88c0.866,-10.658 10.222,-18.609 20.88,-17.743c53.913,4.379 97.522,18.007 129.789,50.135c46.156,45.957 69.948,132.951 60.506,297.454c-1.652,28.792 -20.964,57.945 -49.626,83.818c-58.739,53.022 -155.864,94.29 -169.907,100.222c-9.851,4.161 -21.226,-0.459 -25.387,-10.309c-4.161,-9.851 0.459,-21.226 10.309,-25.387c11.313,-4.778 80.105,-33.763 134.285,-73.345c17.153,-12.531 32.838,-26.096 44.38,-40.369c9.687,-11.979 16.535,-24.22 17.26,-36.85c8.468,-147.542 -7.764,-226.555 -49.161,-267.774c-26.101,-25.989 -61.974,-35.429 -105.585,-38.971Z"/><path d="M1048.235,120.233c9.742,-4.409 21.231,-0.079 25.64,9.663c4.409,9.742 0.079,21.231 -9.663,25.64c-71.777,32.483 -72.833,25.482 -143.296,62.685c-14.035,7.41 -24.867,12.427 -33.048,17.381c-4.769,2.887 -8.391,5.305 -10.427,9.405c-3.79,7.631 -3.578,18.495 -2.559,36.794c3.603,64.675 8.378,198.771 11.324,286.013c63.891,-123.138 123.403,-185.816 138.347,-201.595c7.353,-7.764 19.626,-8.098 27.39,-0.745c7.764,7.353 8.098,19.626 0.745,27.39c-16.899,17.844 -92.951,98.379 -165.522,262.589c-3.655,8.27 -12.544,12.913 -21.42,11.187c-8.876,-1.726 -15.377,-9.362 -15.667,-18.399c-0.933,-29.15 -8.65,-270.261 -13.888,-364.285c-1.563,-28.065 0.731,-44.483 6.544,-56.187c4.306,-8.669 10.436,-15.373 19.247,-21.543c9.326,-6.53 22.535,-12.608 40.842,-22.273c71.524,-37.762 72.554,-30.749 145.412,-63.721Z"/><path d="M856.126,399.104c-8.744,6.155 -20.841,4.054 -26.996,-4.69c-6.155,-8.744 -4.054,-20.841 4.69,-26.996c10.475,-7.374 9.305,-7.41 125.874,-99.727c8.383,-6.639 20.579,-5.223 27.218,3.16c6.639,8.383 5.223,20.579 -3.16,27.218c-118.155,93.573 -117.008,93.561 -127.626,101.035Z"/><path d="M1019.301,509.552c11.484,-104.577 34.236,-301.729 53.095,-401.298c1.99,-10.507 12.136,-17.421 22.642,-15.431c10.507,1.99 17.421,12.136 15.431,22.642c-24.56,129.67 -55.712,425.984 -59.622,463.148c-1.079,10.249 -9.992,17.861 -20.284,17.321c-10.292,-0.54 -18.36,-9.042 -18.36,-19.348l0,-52.049c-0,-6.036 2.766,-11.43 7.098,-14.985Z"/><path d="M1078.57,155.664c-5.709,-9.042 -3.003,-21.018 6.039,-26.727c9.042,-5.709 21.018,-3.003 26.727,6.039c9.009,14.269 0.965,17.321 92.306,190.931c24.749,47.04 33.752,70.39 41.245,94.988c10.204,-130.509 27.933,-335.716 35.093,-386.117c1.504,-10.587 11.32,-17.961 21.907,-16.458c10.587,1.504 17.961,11.32 16.458,21.907c-9.744,68.597 -39.181,426.068 -42.081,485.256c-0.453,9.241 -7.376,16.873 -16.53,18.221c-9.154,1.347 -17.983,-3.966 -21.079,-12.685c-34.124,-96.089 -21.972,-97.106 -69.305,-187.071c-90.029,-171.117 -81.899,-174.222 -90.778,-188.286Z"/><path d="M1403.354,30.181c1.99,-10.507 12.136,-17.421 22.642,-15.431c10.507,1.99 17.421,12.136 15.431,22.642c-60.781,320.905 -81.122,313.047 -165.813,626.047c-2.793,10.322 -13.441,16.435 -23.763,13.642c-10.322,-2.793 -16.435,-13.441 -13.642,-23.763c84.301,-311.558 104.644,-303.711 165.145,-623.137Z"/><path d="M1486.444,610.625c-9.348,-1.377 -16.533,-9.44 -16.533,-19.168c0,-3.981 1.203,-7.682 3.265,-10.761c-33.015,-118.813 -25.079,-124.404 -34.901,-259.231c-11.942,-163.924 -32.602,-173.785 -42.126,-244.186c-1.434,-10.597 6.006,-20.364 16.602,-21.798c10.597,-1.434 20.364,6.006 21.798,16.602c9.616,71.078 30.317,81.062 42.374,246.565c9.956,136.663 0.879,136.705 38.043,267.513l1.041,9.168l-1.999,7.037l-4.296,5.717l-6.652,4.023l-6.935,1.156l-6.445,-1.153c-0.6,-0.21 -2.128,-0.943 -3.235,-1.486Z"/><path d="M1336.912,367.767c4.542,-5.74 9.364,-11.963 13.825,-17.975c21.381,-28.811 45.747,-62.798 57.645,-76.842c5.356,-6.322 9.882,-9.802 12.005,-10.923c31.386,-16.57 28.914,-19.075 62.467,-30.885c10.087,-3.55 21.158,1.756 24.709,11.843c3.55,10.087 -1.756,21.158 -11.843,24.709c-30.086,10.589 -28.515,13.26 -55.259,27.547c-3.455,4.528 -36.726,48.159 -58.606,77.642c-14.778,19.914 -28.278,37.366 -35.6,44.761c-4,4.04 -7.494,6.284 -9.668,7.295l-5.881,1.782l-6.706,-0.113l-6.827,-2.629l-5.47,-4.976l-3.151,-6.122l-0.887,-8.609c0.31,-3.518 2.67,-11.808 9.194,-25.586c3.692,-7.798 11.932,-11.993 20.054,-10.919Z"/><path d="M1561.475,535.691c-0.001,8.598 -0.001,17.273 -0.001,26.025c0,10.701 -8.674,19.375 -19.375,19.375c-10.701,0 -19.375,-8.674 -19.375,-19.375l0,-26.025c-0,-0.145 0.002,-0.29 0.005,-0.434c0.157,-434.255 4.038,-463.372 -9.669,-506.791c-3.219,-10.197 2.446,-21.09 12.644,-24.309c10.197,-3.219 21.09,2.446 24.309,12.644c14.018,44.405 11.56,74.142 11.463,518.89Z"/><path d="M1547.877,49.312c-10.621,1.246 -20.255,-6.365 -21.501,-16.985c-1.246,-10.621 6.365,-20.255 16.985,-21.501c56.666,-6.648 90.811,-4.414 111.409,0.905c21.168,5.466 31.273,14.688 36.738,22.783c6.437,9.536 7.119,18.83 7.272,24.802c0.28,10.929 3.705,26.171 5.979,44.148c3.935,31.115 4.806,69.255 -12.566,108.248c-15.768,35.394 -46.708,72.069 -106.096,104.138c82.886,43.323 127.138,107.307 159.287,151.517c10.662,14.662 19.644,26.928 28.623,34.502c3.907,3.296 7.323,5.912 11.638,4.393c10.087,-3.55 21.158,1.756 24.709,11.843c3.55,10.087 -1.756,21.158 -11.843,24.709c-23.393,8.234 -44.805,-2.496 -67.201,-29.898c-35.367,-43.272 -81.024,-133.519 -198.137,-178.487c-7.379,-2.833 -12.297,-9.865 -12.427,-17.767c-0.131,-7.903 4.553,-15.093 11.834,-18.168c72.331,-30.551 108.174,-66.538 124.217,-102.55c14.049,-31.535 12.701,-62.453 9.518,-87.616c-2.471,-19.541 -5.968,-36.139 -6.272,-48.019c-0.025,-0.962 0.385,-2.576 -0.652,-4.113c-2.01,-2.978 -6.521,-4.933 -14.309,-6.944c-17.971,-4.641 -47.764,-5.739 -97.205,0.062Z"/><path d="M265.236,149.038c-298.496,-7.357 -294.538,643.026 0,490.751" style="fill:none;stroke:#000;stroke-width:23.08px;"/><path d="M1526.705,357.302c-6.192,-8.718 -4.141,-20.823 4.577,-27.015c8.718,-6.192 20.823,-4.141 27.015,4.577c30.452,42.875 63.803,63.959 97.257,84.961c37.214,23.362 74.565,46.615 109.717,93.013c6.457,8.523 4.78,20.686 -3.743,27.143c-8.523,6.457 -20.686,4.78 -27.143,-3.743c-31.747,-41.904 -65.825,-62.496 -99.433,-83.595c-37.368,-23.459 -74.232,-47.451 -108.246,-95.341Z"/></g></svg>