<?xml version="1.0" encoding="UTF-8" standalone="no"?><!DOCTYPE svg PUBLIC "-//W3C//DTD SVG 1.1//EN" "http://www.w3.org/Graphics/SVG/1.1/DTD/svg11.dtd"><svg width="100%" height="100%" viewBox="0 0 464 177" version="1.1" xmlns="http://www.w3.org/2000/svg" xmlns:xlink="http://www.w3.org/1999/xlink" xml:space="preserve" xmlns:serif="http://www.serif.com/" style="fill-rule:evenodd;clip-rule:evenodd;stroke-linejoin:round;stroke-miterlimit:2;"><path d="M219,17c0.99,8.91 0.99,8.91 2,18c0.33,-3.3 0.66,-6.6 1,-10c4.089,-1.022 68.416,2.504 77,3c0.33,-1.65 0.66,-3.3 1,-5c11.744,-0.393 93.446,-3.027 98,-3c0.747,5.312 1.021,36.339 1,40l2,0c0.014,-0.721 3.389,-26.784 6,-39c12.407,1.684 51,8 54,9c-1.299,9.849 -29.737,122.623 -31,136c-5.66,-0.501 -41.41,-6.736 -54.586,-6.707c-2.166,-0.013 -63.16,-0.279 -74.414,-0.293c-0.33,1.65 -0.66,3.3 -1,5c-15.421,0.127 -77.008,-2.337 -83,-3c-0.33,-1.65 -0.66,-3.3 -1,-5c-0.852,0.16 -165.853,22.017 -177,21c-6.075,-31.544 -12.089,-63.099 -17.827,-94.706c-0.358,-1.97 -0.719,-3.94 -1.08,-5.909c-0.676,-3.694 -1.345,-7.389 -2.011,-11.084c-0.197,-1.072 -0.395,-2.145 -0.598,-3.25c-1.249,-7.001 -2.013,-13.955 -2.484,-21.051c1.322,-0.253 1.322,-0.253 2.67,-0.511c8.369,-1.603 85.33,-16.489 92.33,-16.489c2.31,12.54 4.62,25.08 7,38c-0.33,-12.87 -0.66,-25.74 -1,-39c18.671,-1.493 37.341,-2.753 56.038,-3.86c3.761,-0.223 7.521,-0.45 11.281,-0.679c2.949,-0.179 5.899,-0.355 8.849,-0.53c1.387,-0.083 2.775,-0.167 4.162,-0.251c7.571,-0.461 15.085,-0.773 22.671,-0.68Zm-29.75,23.375c-0.703,0.031 -1.406,0.062 -2.131,0.094c-1.713,0.102 -3.418,0.307 -5.119,0.531c-0.33,0.66 -0.66,1.32 -1,2c0.543,0.182 1.085,0.364 1.645,0.551c1.073,0.377 1.073,0.377 2.168,0.762c0.708,0.244 1.415,0.487 2.145,0.738c3.007,1.397 4.615,2.971 5.95,6.027c2.266,8.041 2.798,15.954 3.173,24.254c0.106,2.335 0.229,4.668 0.355,7.002c1.772,34.173 1.772,34.173 -4.686,42.604c-5.951,4.463 -11.447,6.006 -18.75,5.062c-5.195,-1.618 -8.281,-3.242 -11,-8c-3.249,-9.316 -3.673,-18.824 -4.081,-28.579c-0.106,-2.521 -1.119,-29.841 -1.157,-32.288c-0.033,-1.097 -0.033,-1.097 -0.067,-2.217c-0.037,-4.727 0.808,-7.904 3.305,-11.916c2.276,-1.55 4.354,-2.102 7,-3c-1.915,-2.378 -39.271,0.151 -47,1l0,2c1.258,0.351 2.516,0.701 3.812,1.062c3.415,0.952 4.092,1.769 5.883,4.926c1.738,4.604 2.037,9.261 2.367,14.137c0.077,0.983 1.935,29.128 2.065,31.586c0.764,12.515 1.928,24.015 11.537,32.812c6.701,5.293 14.451,5.847 22.711,5.789c0.836,-0.006 1.673,-0.011 2.534,-0.017c10.035,-0.197 17.656,-2.274 25.091,-9.295c9.209,-10.905 6.293,-27.704 5.5,-41c-0.45,-7.749 -0.782,-24.839 -0.814,-26.461c-0.027,-5.939 0.248,-10.378 3.314,-15.539c2.291,-1.683 4.244,-2.116 7,-3l0,-2c-7.262,-0.112 -14.499,-0.011 -21.75,0.375Zm189.828,0.871c-10.581,0.266 -16.07,4.801 -23.277,12.141c-2.385,2.529 -19.909,21.317 -23.801,25.613c-0.025,-1.055 -0.521,-33.071 -2,-36l-16,0l0,92c3.861,0.965 15.926,0.275 17,-1c0.088,-2.376 0.021,-28.225 0,-32c0.66,0 8.466,-7.437 8.975,-7.779c0.627,-0.421 1.369,-0.669 3.025,-1.221c0.232,0.681 21.079,36.664 29.676,42.924c6.186,0.874 12.218,0.269 18.324,-0.924c-2.638,-4.888 -34.735,-50.632 -35.187,-51.239c-0.813,-1.761 32.791,-38.365 34.187,-39.761c-3.106,-3.106 -6.744,-2.734 -10.922,-2.754Zm-144.078,9.754c-0.99,0.495 -0.99,0.495 -2,1c-0.389,2.323 -7.985,88.763 -7.985,88.763c1.32,1.837 7.985,1.237 7.985,1.237c3.927,-0.071 6.266,1.514 9.5,-0.75c1.728,-2.104 0.054,-41.133 1.098,-47.402c0.376,-2.663 0.476,-5.163 0.402,-7.848l2,0c0.147,0.851 13.111,40.355 22,56c3.33,1.868 11.687,1.013 14.036,0.813c0.81,-0.069 16.691,-88.6 16.964,-91.813c-3.513,-2.342 -9.613,-3.208 -13.748,-2.712c0,0 -12.232,77.712 -13.252,77.712c-0.394,-1.201 -0.394,-1.201 -0.797,-2.426c-0.88,-2.614 -14.273,-45.624 -15.586,-65.316c-0.728,-3.84 -1.827,-5.551 -4.617,-8.258c-5.924,-2.891 -10.431,-2.068 -16,1Zm-172,5c-1.016,0.179 -25.347,4.857 -27,8c0.136,2.653 16.931,87.055 18,89c7.389,-0.626 14.973,-1.553 22,-4c1.347,-4.042 -5.148,-35.666 -6,-40c1.6,-0.268 1.6,-0.268 3.232,-0.542c11.681,-2.026 24.263,-4.467 31.729,-14.704c4.493,-7.584 5.701,-13.862 3.754,-22.363c-2.055,-6.873 -6.861,-10.706 -12.715,-14.391c-10.179,-4.858 -22.327,-2.896 -33,-1Zm348,6c-3.065,3.66 -4.352,7.426 -4,12.188c1.063,4.053 1.93,5.991 5,8.812c4.592,2.245 8.084,2.341 13,1c3.354,-2.844 5.771,-4.97 6.273,-9.426c0.266,-6.179 0.266,-6.179 -2.336,-11.637c-6.166,-4.067 -11.672,-5.237 -17.938,-0.938Zm-10,45c-1.973,3.945 -1.441,8.699 -1,13c1.885,3.552 3.231,4.624 6.812,6.375c3.848,0.754 6.397,0.659 10.188,-0.375c3.58,-2.864 5.953,-5.499 7,-10c0.071,-4.361 -0.515,-7.265 -2.938,-10.938c-2.941,-2.941 -4.748,-3.277 -8.812,-3.438c-5.467,0.032 -7.577,1.419 -11.25,5.375Z" style="fill-rule:nonzero;"/></svg>