<svg id="Capa_1" data-name="Capa 1" xmlns="http://www.w3.org/2000/svg" viewBox="0 0 138.85 127.75"><title>ojo_logo</title><path d="M140.07,72.36l-3.34-.28c-6.31-.86-17.86-3.51-24.4-11.56-9.7-11.94-2.79-25.33-2-26.82l0-.08a.34.34,0,0,0-.6-.33l0,.07h0c-.78,1.39-8,13.4-23.35,8.72C75.14,38.64,72.28,28.86,71.58,23.35l-.18-1.9c-.08-1.32-.12-2.17-.12-2.17a.32.32,0,0,0-.34-.33.35.35,0,0,0-.34.33s0,.85-.11,2.16l-.18,1.9c-.71,5.52-3.57,15.3-14.84,18.74-15.31,4.68-22.57-7.32-23.35-8.71h0l0-.08a.34.34,0,0,0-.46-.13.33.33,0,0,0-.14.46l0,.07h0c.82,1.49,7.74,14.88-2,26.83-6.54,8-18.1,10.7-24.38,11.56l-3.33.27a.34.34,0,0,0-.31.34.32.32,0,0,0,.3.34l3.32.31c6.3.86,17.86,3.51,24.4,11.56,9.71,11.95,2.79,25.34,2,26.83h0l0,.08a.34.34,0,0,0,.14.46.29.29,0,0,0,.16,0,.34.34,0,0,0,.3-.17l0-.08h0c.78-1.39,8-13.4,23.35-8.71,11.27,3.44,14.13,13.21,14.84,18.72l.18,1.91c.07,1.32.11,2.17.11,2.17a.34.34,0,0,0,.34.32h0a.34.34,0,0,0,.34-.32s0-.85.12-2.16l.18-1.91c.7-5.52,3.56-15.29,14.84-18.73,15.31-4.68,22.57,7.33,23.35,8.71h0l0,.07a.33.33,0,0,0,.3.18.32.32,0,0,0,.16,0,.35.35,0,0,0,.18-.3.47.47,0,0,0,0-.16l0-.08h0c-.82-1.5-7.73-14.88,2-26.83,6.54-8.05,18.1-10.7,24.39-11.56l3.35-.3a.34.34,0,0,0,.31-.34A.35.35,0,0,0,140.07,72.36Zm-67.87,29c-9.21.27-19.71-2.83-28.1-8.31C35.35,87.34,30.21,79.94,30,72.75c-.15-5.19,2.23-10.42,6.89-15.12,8.28-8.37,22.48-13.82,35.33-13.57A51.63,51.63,0,0,1,99,52.72c8.4,5.69,13,12.81,13,20C111.82,88.2,90.49,100.81,72.2,101.36Z" transform="translate(-1.53 -8.33)"/><ellipse cx="69.43" cy="64.38" rx="5.12" ry="13.58"/><path d="M71,8.33a2.42,2.42,0,1,0,2.42,2.42A2.42,2.42,0,0,0,71,8.33Z" transform="translate(-1.53 -8.33)"/><path d="M71,131.25a2.42,2.42,0,1,0,2.42,2.42A2.41,2.41,0,0,0,71,131.25Z" transform="translate(-1.53 -8.33)"/><path d="M25,116.59a2.41,2.41,0,1,0,3.41-.15A2.42,2.42,0,0,0,25,116.59Z" transform="translate(-1.53 -8.33)"/><path d="M116.7,27.91a2.42,2.42,0,1,0-3.42.15A2.42,2.42,0,0,0,116.7,27.91Z" transform="translate(-1.53 -8.33)"/><circle cx="114.91" cy="118.22" r="2.42" transform="translate(-51.35 116.51) rotate(-48.11)"/><path d="M25.15,24.49a2.42,2.42,0,1,0,3.41.16A2.42,2.42,0,0,0,25.15,24.49Z" transform="translate(-1.53 -8.33)"/></svg>