<?xml version="1.0" encoding="UTF-8" standalone="no"?>
<!DOCTYPE svg PUBLIC "-//W3C//DTD SVG 1.1//EN" "http://www.w3.org/Graphics/SVG/1.1/DTD/svg11.dtd">
<svg width="100%" height="100%" viewBox="0 0 1203 1891" version="1.1" xmlns="http://www.w3.org/2000/svg" xmlns:xlink="http://www.w3.org/1999/xlink" xml:space="preserve" xmlns:serif="http://www.serif.com/" style="fill-rule:evenodd;clip-rule:evenodd;stroke-linejoin:round;stroke-miterlimit:2;">
    <g transform="matrix(1,0,0,1,-63.218717,-16.26844)">
        <g transform="matrix(1,0,0,1,2.022426,-76.849779)">
            <path d="M173.794,375.453C173.068,371.097 176.015,366.972 180.37,366.246C184.725,365.52 188.851,368.467 189.577,372.822C204.002,459.374 214.799,456.745 222.015,543.352C222.382,547.752 219.107,551.622 214.707,551.988C210.307,552.355 206.437,549.08 206.071,544.68C198.908,458.727 188.111,461.352 173.794,375.453Z"/>
        </g>
        <g transform="matrix(1,0,0,1,2.022426,-76.849779)">
            <path d="M145.283,396.294C140.867,396.294 137.283,392.709 137.283,388.294C137.283,383.879 140.867,380.294 145.283,380.294C151.178,380.294 170.233,379.411 206,338.534C208.908,335.211 213.966,334.874 217.289,337.781C220.612,340.689 220.949,345.747 218.041,349.07C175.941,397.185 152.222,396.294 145.283,396.294Z"/>
        </g>
        <g transform="matrix(1,0,0,1,2.022426,-76.849779)">
            <path d="M252.558,341.78C252.558,337.364 256.142,333.78 260.558,333.78C264.973,333.78 268.558,337.364 268.558,341.78C268.558,469.898 275.642,470.86 251.845,532.731C250.26,536.852 245.628,538.911 241.507,537.326C237.386,535.741 235.327,531.109 236.912,526.988C259.987,466.993 252.558,466.012 252.558,341.78Z"/>
        </g>
        <g transform="matrix(1,0,0,1,2.022426,-76.849779)">
            <path d="M249.357,323.111C247.383,319.162 248.986,314.353 252.935,312.378C256.884,310.404 261.694,312.007 263.668,315.956C296.79,382.2 296.103,382.221 350.812,430.851C370.299,448.174 379.026,462.039 384.895,471.369C386.595,474.072 388.004,476.347 389.409,478.138C390.121,479.047 390.723,479.824 391.544,480.234C395.493,482.209 397.097,487.018 395.122,490.967C393.147,494.917 388.338,496.52 384.389,494.545C380.667,492.684 377.488,489.324 374.063,484.135C368.539,475.763 361.134,461.434 340.182,442.81C283.177,392.139 283.869,392.135 249.357,323.111Z"/>
        </g>
        <g transform="matrix(1,0,0,1,2.022426,-76.849779)">
            <path d="M317.594,414.995C320.716,411.873 325.785,411.873 328.907,414.995C332.03,418.117 332.03,423.186 328.908,426.308C307.261,447.957 305.172,442.68 278.292,456.12C274.342,458.095 269.533,456.492 267.559,452.542C265.584,448.593 267.187,443.784 271.136,441.809C295.682,429.537 297.827,434.763 317.594,414.995Z"/>
        </g>
        <g transform="matrix(1,0,0,1,2.022426,-76.849779)">
            <path d="M341.661,302.712C340.9,298.363 343.812,294.214 348.162,293.452C352.511,292.691 356.66,295.603 357.422,299.952C382.887,445.367 368.268,379.302 397.697,485.249C398.879,489.503 396.384,493.916 392.13,495.098C387.876,496.28 383.462,493.785 382.281,489.531C352.609,382.713 367.337,449.324 341.661,302.712Z"/>
        </g>
        <g transform="matrix(1,0,0,1,2.022426,-76.849779)">
            <path d="M441.905,392.517C442.531,390.864 443.586,387.84 444.362,384.392C444.718,382.812 445.08,381.065 445.453,379.135C449.344,359.033 454.363,319.959 464.986,245.597C465.539,241.728 468.806,238.825 472.713,238.731C476.621,238.637 480.024,241.38 480.762,245.218C503.544,363.683 543.125,457.207 549.586,502.437C550.21,506.808 547.168,510.864 542.797,511.488C538.426,512.113 534.371,509.071 533.746,504.7C528.129,465.377 497.353,389.461 474.503,292.361C464.3,364.418 460.523,391.2 456.069,400.285C453.68,405.158 450.752,407.21 447.853,408.206C445.205,409.115 442.196,409.086 438.608,408.189C421.065,403.804 402.54,389.423 386.513,371.797C363.099,346.046 344.982,313.649 341.732,299.023C340.774,294.713 343.496,290.436 347.806,289.478C352.116,288.52 356.393,291.242 357.351,295.552C360.29,308.776 377.181,337.75 398.351,361.033C411.869,375.9 427.098,388.587 441.905,392.517Z"/>
        </g>
        <g transform="matrix(1,0,0,1,2.022426,-76.849779)">
            <path d="M537.714,263.136C537.588,258.722 541.069,255.037 545.482,254.911C549.896,254.785 553.582,258.265 553.708,262.679C556.188,349.505 568.235,346.668 577.93,433.925C578.418,438.313 575.251,442.272 570.863,442.759C566.474,443.247 562.516,440.08 562.028,435.692C552.259,347.774 540.214,350.619 537.714,263.136Z"/>
        </g>
        <g transform="matrix(1,0,0,1,2.022426,-76.849779)">
            <path d="M732.585,327.919C700.283,331.901 581.195,353.571 569.388,355.718C566.197,356.298 562.972,354.894 561.221,352.163C559.471,349.433 559.543,345.916 561.403,343.259C577.217,320.668 593.692,305.791 604.434,293.292C610.6,286.118 615.026,280.303 614.145,273.414C613.173,265.819 606.511,257.924 593.171,246.807C591.163,245.134 588.067,245.287 584.532,245.741C579.098,246.438 572.866,248.554 566.512,251.421C554.413,256.881 541.95,265.107 533.54,272.736C530.965,275.073 528.788,277.333 527.188,279.429C526.237,280.675 525.436,281.711 525.242,282.678C524.376,287.007 520.158,289.819 515.829,288.953C511.499,288.087 508.687,283.869 509.553,279.54C510.321,275.701 513.247,270.598 518.263,265.299C527.435,255.607 543.939,244.054 559.931,236.837C569.605,232.472 579.127,229.726 586.859,229.527C593.637,229.352 599.294,231.082 603.414,234.516C621.315,249.434 628.711,261.191 630.015,271.384C631.41,282.288 626.329,292.365 616.568,303.721C608.884,312.662 598.162,322.821 586.906,336.291C627.535,328.98 713.826,313.652 734.545,311.598C737.531,311.302 739.572,311.311 740.496,311.431L742.547,311.934L744.176,312.759L745.654,313.995L746.695,315.365L747.805,318.617C756.777,396.374 709.189,430.885 666.435,451.719C650.419,459.523 635.184,465.307 624.463,470.887C619.191,473.632 615.037,475.834 613.537,478.833C611.563,482.782 606.754,484.386 602.804,482.411C598.855,480.437 597.252,475.627 599.226,471.678C601.286,467.559 605.459,463.51 611.613,459.755C622.449,453.145 640.384,446.615 659.426,437.336C695.721,419.65 736.66,391.21 732.585,327.919Z"/>
        </g>
        <g transform="matrix(1,0,0,1,2.022426,-76.849779)">
            <path d="M733.886,356.45C729.118,315.705 712.083,255.173 715.706,211.684C716.073,207.284 719.943,204.009 724.343,204.376C728.743,204.743 732.018,208.612 731.651,213.013C728.094,255.707 745.227,315.147 749.827,355.019C749.889,355.549 749.503,372.014 750.349,384.21C750.619,388.099 750.802,391.443 751.518,392.982C753.38,396.986 751.641,401.748 747.638,403.61C743.635,405.472 738.872,403.734 737.01,399.73C735.825,397.183 734.835,391.756 734.388,385.318C733.62,374.251 733.871,359.697 733.886,356.508L733.886,356.45Z"/>
        </g>
        <g transform="matrix(1,0,0,1,2.022426,-76.849779)">
            <path d="M783.939,386.025C785.837,383.19 788.007,379.696 790.578,375.829C802.384,358.068 821.991,333.224 859.259,323.907C863.543,322.836 867.89,325.444 868.961,329.727C870.032,334.011 867.424,338.358 863.14,339.429C836.158,346.174 820.045,362.54 809.531,376.652C801.775,387.062 796.759,396.374 792.871,400.805C788.837,405.401 784.64,406.573 781.251,406.071C778.777,405.704 776.1,404.475 773.683,401.363C772.117,399.347 770.388,395.974 768.671,390.824C744.742,319.033 757.349,317.85 764.248,241.959C764.509,239.095 766.287,236.591 768.905,235.401C811.669,215.963 810.541,215.099 848.199,185.81C851.684,183.099 856.714,183.728 859.425,187.213C862.136,190.698 861.507,195.729 858.022,198.439C820.138,227.905 819.969,229.664 779.744,248.045C773.054,316.055 761.468,318.613 783.85,385.764C783.879,385.851 783.908,385.938 783.939,386.025Z"/>
        </g>
        <g transform="matrix(1,0,0,1,2.022426,-76.849779)">
            <path d="M796.601,286.511C796.968,282.111 800.838,278.837 805.238,279.203C809.638,279.57 812.913,283.44 812.546,287.84C808.545,335.852 769.379,370.06 769.379,370.06C766.048,372.959 760.991,372.608 758.092,369.278C755.193,365.948 755.543,360.89 758.874,357.991C758.874,357.991 793.119,328.299 796.601,286.511Z"/>
        </g>
        <g transform="matrix(1,0,0,1,2.022426,-76.849779)">
            <path d="M897.717,194.785C897.365,190.384 900.652,186.525 905.054,186.172C909.455,185.82 913.314,189.108 913.666,193.509C919.441,265.694 920.342,264.11 925.802,335.099C926.141,339.501 922.842,343.35 918.439,343.689C914.037,344.028 910.188,340.728 909.849,336.326C904.391,265.362 903.49,266.945 897.717,194.785Z"/>
        </g>
        <g transform="matrix(1,0,0,1,2.022426,-76.849779)">
            <path d="M918.044,207.695C915.032,204.467 915.207,199.401 918.434,196.388C921.662,193.375 926.729,193.55 929.741,196.778C958.27,227.344 973.506,247.752 985.41,263.253C999.965,282.208 1009.276,293.438 1033.541,307.565C1030.512,281.245 1024.273,229.896 1019.238,208.08C1013.408,182.814 1013.823,184.095 1010.993,158.628C1010.506,154.239 1013.672,150.281 1018.061,149.793C1022.449,149.306 1026.408,152.473 1026.895,156.861C1029.62,181.384 1029.214,180.153 1034.829,204.482C1041.433,233.1 1050.132,311.721 1051.164,321.083C1051.488,324.014 1050.172,326.885 1047.742,328.555C1045.312,330.224 1042.16,330.421 1039.54,329.068C1007.992,312.768 995.319,301.198 981.239,283.86C967.857,267.382 953.193,245.354 918.044,207.695Z"/>
        </g>
        <g transform="matrix(1,0,0,1,2.022426,-76.849779)">
            <path d="M839.076,100.394C839.476,95.997 843.37,92.751 847.767,93.151C852.165,93.551 855.41,97.445 855.01,101.843C854.559,106.805 850.675,145.485 839.543,162.182C837.094,165.856 832.123,166.85 828.449,164.401C824.775,161.952 823.781,156.98 826.23,153.307C835.961,138.711 838.682,104.732 839.076,100.394Z"/>
        </g>
        <g transform="matrix(1,0,0,1,2.022426,-76.849779)">
            <path d="M283.304,696.201C281.907,692.012 284.174,687.478 288.363,686.081C292.552,684.685 297.086,686.952 298.483,691.141C308.807,722.115 332.463,831.393 335.115,843.658C336.048,847.973 333.302,852.234 328.986,853.168C324.671,854.101 320.409,851.354 319.476,847.039C316.854,834.91 293.513,726.831 283.304,696.201Z"/>
        </g>
        <g transform="matrix(1,0,0,1,2.022426,-76.849779)">
            <path d="M295.872,695.226C293.897,691.277 295.5,686.468 299.45,684.493C303.399,682.519 308.208,684.122 310.183,688.071C323.273,714.251 330.815,727.466 335.774,734.164C338.228,737.48 338.893,738.171 340.154,738.285C350.378,739.215 356.576,733.055 361.131,724.148C370.122,706.57 373.104,679.352 378.149,657.492C379.03,653.676 382.544,651.058 386.452,651.307C390.361,651.556 393.515,654.598 393.904,658.495C394.533,664.781 402.596,733.566 410.533,779.599C413.712,798.037 416.537,812.647 419.117,817.002C421.368,820.8 420.111,825.712 416.313,827.962C412.514,830.213 407.603,828.957 405.352,825.158C402.385,820.151 398.422,803.52 394.766,782.317C390.845,759.578 386.894,731.337 383.807,707.684C381.545,716.444 378.862,724.618 375.376,731.434C367.602,746.635 356.155,755.806 338.706,754.22C336.83,754.049 335.044,753.784 332.965,752.86C330.484,751.757 327.266,749.564 322.913,743.683C317.695,736.633 309.65,722.783 295.872,695.226Z"/>
        </g>
        <g transform="matrix(1,0,0,1,2.022426,-76.849779)">
            <path d="M444.505,655.231C444.641,657.319 444.996,662.255 445.613,667.298C449.404,698.27 461.678,770.272 478.342,831.044C506.208,821.607 507.596,819.568 531.964,795.199C535.087,792.077 540.156,792.077 543.278,795.199C546.4,798.321 546.4,803.391 543.278,806.513C514.093,835.699 514.82,835.765 475.436,848.893C473.366,849.583 471.104,849.398 469.174,848.38C467.244,847.362 465.813,845.599 465.214,843.501C447.151,780.284 433.748,702.057 429.732,669.242C428.591,659.919 428.319,653.807 428.596,652.007C429.163,648.321 432.717,643.231 439.508,638.747C457.105,627.126 498.708,613.27 498.708,613.27C502.9,611.884 507.429,614.163 508.815,618.355C510.2,622.547 507.922,627.076 503.73,628.461C503.73,628.461 473.64,638.385 454.997,648.217C450.76,650.451 445.989,654.076 444.505,655.231Z"/>
        </g>
        <g transform="matrix(1,0,0,1,2.022426,-76.849779)">
            <path d="M520.388,718.644C524.464,716.946 529.151,718.876 530.849,722.952C532.548,727.028 530.617,731.715 526.542,733.413C520.869,735.777 469.475,757.177 455.212,761.931C451.023,763.328 446.489,761.06 445.093,756.872C443.696,752.683 445.964,748.149 450.152,746.752C464.198,742.07 514.801,720.972 520.388,718.644Z"/>
        </g>
        <g transform="matrix(1,0,0,1,2.022426,-76.849779)">
            <path d="M628.721,578.638C628.587,574.225 632.062,570.534 636.475,570.4C640.888,570.266 644.58,573.741 644.714,578.154C646.888,649.906 648.581,649.073 666.7,717.926C679.68,767.25 673.441,767.267 681.031,817.871C681.686,822.237 678.673,826.314 674.307,826.969C669.94,827.624 665.863,824.611 665.208,820.244C657.748,770.508 663.984,770.476 651.227,721.998C632.644,651.382 630.951,652.228 628.721,578.638Z"/>
        </g>
        <g transform="matrix(1,0,0,1,2.022426,-76.849779)">
            <path d="M654.223,681.675C663.577,676.983 671.604,673.181 678.395,669.534C687.595,664.594 694.339,660.196 698.591,653.461C704.508,644.086 705.516,630.701 703.572,607.374C702.386,593.133 692.38,587.924 680.867,586.492C659.409,583.824 632.86,592.834 629.135,594.075C624.946,595.471 620.412,593.204 619.016,589.015C617.62,584.827 619.887,580.292 624.076,578.896C628.303,577.487 658.486,567.586 682.842,570.614C694.085,572.012 704.115,576.126 710.87,583.96C715.507,589.337 718.722,596.499 719.517,606.045C721.884,634.448 719.326,650.586 712.121,662.001C707.554,669.236 701.096,674.76 692.329,680.03C680.923,686.888 665.22,693.488 644.593,704.739C641.248,706.564 637.08,705.775 634.631,702.855C632.183,699.935 632.135,695.694 634.515,692.718L642.605,682.606C645.363,679.158 650.401,678.599 653.849,681.357C653.978,681.46 654.102,681.566 654.223,681.675Z"/>
        </g>
        <g transform="matrix(1,0,0,1,2.022426,-76.849779)">
            <path d="M721.764,543.484C722.057,539.078 725.873,535.74 730.278,536.034C734.684,536.327 738.022,540.143 737.728,544.548C737.182,552.736 732.843,616.672 740.96,656.952C742.556,664.872 744.604,671.818 747.389,677.027C749.229,680.471 751.114,683.183 753.932,683.887C775.976,689.398 786.749,672.566 793.274,650.166C805.003,609.9 802.203,551.062 804.725,530.889C805.272,526.508 809.274,523.396 813.655,523.944C818.037,524.491 821.149,528.493 820.601,532.874C818.026,553.472 820.612,613.525 808.636,654.64C799.351,686.515 781.418,707.251 750.052,699.41C744.517,698.026 739.632,694.369 735.663,688.533C731.115,681.844 727.651,671.897 725.276,660.113C716.853,618.318 721.197,551.98 721.764,543.484Z"/>
        </g>
        <g transform="matrix(1,0,0,1,2.022426,-76.849779)">
            <path d="M846.608,701.401C851.2,696.423 856.664,691.125 862.829,687.014C925.87,644.987 948.14,639.082 958.394,637.359C960.133,637.067 961.527,636.904 962.722,636.717C963.192,636.643 963.584,636.697 963.947,636.455C967.621,634.006 972.592,635 975.041,638.674C977.491,642.348 976.496,647.319 972.823,649.768C970.313,651.442 967.947,652.131 964.502,652.629C956.507,653.784 939.254,655.294 871.704,700.327C858.935,708.84 849.554,722.961 844.877,727.195C841.979,729.819 839.225,730.521 837.471,730.551L833.989,729.901L830.99,727.871L829.147,725.102C828.793,724.293 828.468,723.252 828.295,721.929C828.03,719.904 828.159,716.283 829.024,710.656C850.797,569.133 845.606,522.927 845.656,504.737C845.675,498.023 846.609,494.045 848.409,491.007C849.846,488.58 851.854,486.577 854.937,484.651C877.188,470.744 890.507,468.641 899.557,467.302C902.388,466.883 904.673,466.684 906.636,465.858C910.706,464.147 915.4,466.063 917.111,470.133C918.822,474.203 916.907,478.897 912.837,480.608C909.786,481.891 906.297,482.479 901.899,483.129C894.084,484.285 882.629,486.211 863.417,498.218C862.231,498.96 861.911,499.739 861.777,501.314C861.522,504.296 861.69,508.371 861.86,514.293C862.525,537.461 863.669,586.861 846.608,701.401Z"/>
        </g>
        <g transform="matrix(1,0,0,1,2.022426,-76.849779)">
            <path d="M921.799,557.38C925.585,555.108 930.504,556.338 932.775,560.124C935.047,563.91 933.817,568.828 930.031,571.1C899.205,589.596 864.044,603.672 858.104,606.048C854.004,607.687 849.345,605.691 847.705,601.591C846.065,597.491 848.062,592.832 852.161,591.192C857.912,588.892 891.958,575.285 921.799,557.38Z"/>
        </g>
        <g transform="matrix(1,0,0,1,2.022426,-76.849779)">
            <path d="M944.206,459.077C944.206,454.661 947.791,451.077 952.206,451.077C956.621,451.077 960.206,454.661 960.206,459.077C960.206,559.357 967.918,598.575 974.346,698.212C974.63,702.618 971.284,706.426 966.878,706.71C962.471,706.995 958.663,703.648 958.379,699.242C951.923,599.177 944.206,559.789 944.206,459.077Z"/>
        </g>
        <g transform="matrix(1,0,0,1,2.022426,-76.849779)">
            <path d="M982.31,707.38C983.117,707.275 984.238,707.082 985.102,706.747C988.085,705.59 991.399,703.394 994.816,700.197C1008.226,687.65 1021.882,660.984 1023.081,616.605C1023.967,583.833 1024.602,544.673 1015.248,511.786C1006.499,481.024 988.757,455.884 952.659,448.664C948.33,447.798 945.518,443.58 946.384,439.251C947.25,434.921 951.468,432.109 955.797,432.975C998.661,441.548 1020.249,470.881 1030.638,507.408C1040.422,541.81 1040.002,582.755 1039.075,617.037C1037.935,659.245 1026.139,687.074 1013.485,703.346C1003.933,715.629 993.518,721.658 985.916,723.115C979.545,724.336 974.433,722.727 971.073,719.702C967.603,716.578 965.383,711.558 966.561,704.49C967.287,700.135 971.412,697.188 975.767,697.914C980.123,698.64 983.069,702.765 982.343,707.12C982.33,707.201 982.319,707.289 982.31,707.38Z"/>
        </g>
        <g transform="matrix(1,0,0,1,2.022426,-76.849779)">
            <path d="M1089.857,670.766C1096.03,665.032 1105.496,654.891 1120.055,637.905C1122.929,634.553 1127.983,634.164 1131.336,637.038C1134.688,639.911 1135.077,644.966 1132.203,648.318C1113.9,669.672 1103.206,680.652 1097.009,685.789C1093.218,688.932 1090.468,690.331 1088.655,690.892C1087.577,691.225 1086.616,691.367 1085.772,691.402L1083.401,691.218L1081.305,690.532L1079.403,689.355L1076.959,686.417C1076.418,685.417 1075.996,684.214 1075.769,682.852C1067.171,631.268 1046.9,576.127 1040.441,531.878C1035.707,499.449 1038.674,472.525 1055.757,455.442C1067.802,443.397 1079.55,440.103 1093.832,437.31C1105.976,434.935 1120.209,432.869 1138.731,423.608C1142.68,421.634 1147.489,423.237 1149.464,427.186C1151.438,431.135 1149.835,435.944 1145.886,437.919C1125.663,448.03 1110.163,450.419 1096.902,453.012C1085.779,455.188 1076.452,457.374 1067.071,466.756C1053.105,480.722 1052.403,503.055 1056.273,529.567C1062.326,571.03 1080.552,622.073 1089.857,670.766Z"/>
        </g>
        <g transform="matrix(1,0,0,1,2.022426,-76.849779)">
            <path d="M1057.256,585.857C1057.54,589.437 1055.368,592.889 1051.809,594.075C1042.184,597.283 1036.622,598.893 1034.256,599.29C1033.192,599.469 1032.375,599.502 1031.799,599.484L1029.775,599.195L1027.741,598.361L1026.013,597.032L1024.662,595.228L1023.83,592.997L1023.655,591.053L1024.042,588.805L1024.766,587.169L1026.149,585.356C1026.996,584.49 1029.515,582.704 1033.493,580.478C1045.204,573.924 1072.772,560.157 1095.479,545.398C1099.181,542.992 1104.14,544.044 1106.546,547.746C1108.952,551.448 1107.901,556.407 1104.199,558.813C1088.646,568.922 1070.858,578.587 1057.256,585.857Z"/>
        </g>
        <g transform="matrix(1,0,0,1,2.022426,-76.849779)">
            <path d="M1133.826,424.107C1137.5,421.658 1142.471,422.652 1144.92,426.326C1147.369,430 1146.375,434.971 1142.701,437.42C1133.533,443.532 1126.79,450.41 1123.004,457.11C1120.206,462.063 1118.898,466.721 1120.609,470.458C1121.599,472.619 1123.666,474.201 1126.565,475.363C1130.847,477.079 1136.606,477.763 1143.91,477.378C1164.262,476.307 1179.44,478.446 1190.017,482.889C1198.311,486.372 1204.077,491.304 1207.717,497.24C1213.05,505.935 1213.955,517.105 1210.066,530.243C1205.137,546.891 1192.195,567.334 1172.597,589.731C1169.69,593.054 1164.631,593.391 1161.309,590.484C1157.986,587.576 1157.648,582.518 1160.556,579.195C1178.25,558.974 1190.274,540.731 1194.724,525.701C1197.088,517.717 1197.318,510.888 1194.078,505.604C1191.386,501.215 1186.442,498.162 1179.407,496.08C1170.747,493.516 1159.277,492.592 1144.751,493.356C1122.577,494.523 1110.501,486.809 1106.063,477.122C1103.142,470.746 1103.124,462.969 1106.432,454.71C1110.465,444.642 1119.734,433.502 1133.826,424.107Z"/>
        </g>
        <g transform="matrix(1,0,0,1,2.022426,-76.849779)">
            <path d="M229.723,1041.623C234.13,1041.347 237.931,1044.701 238.207,1049.108C238.482,1053.515 235.128,1057.316 230.721,1057.591C221.916,1058.142 214.972,1058.667 209.455,1059.748C205.297,1060.563 202.131,1061.579 199.789,1063.591C197.562,1065.502 196.231,1068.28 195.099,1072.086C193.55,1077.294 192.579,1084.064 191.665,1092.9C189.646,1112.422 190.463,1125.902 193.42,1134.895C195.522,1141.286 198.571,1144.865 202.644,1146.009C210.002,1148.075 218.788,1143.869 226.185,1139.287C233.819,1134.559 240.162,1129.136 241.268,1126.924C243.243,1122.975 248.052,1121.372 252.001,1123.346C255.95,1125.321 257.553,1130.13 255.579,1134.079C253.981,1137.275 245.637,1146.059 234.61,1152.889C223.347,1159.866 209.523,1164.559 198.319,1161.413C190.015,1159.082 182.505,1152.923 178.221,1139.893C174.794,1129.473 173.41,1113.874 175.75,1091.253C178.022,1069.288 181.792,1057.955 189.364,1051.452C196.783,1045.082 208.706,1042.936 229.723,1041.623Z"/>
        </g>
        <g transform="matrix(1,0,0,1,2.022426,-76.849779)">
            <path d="M297.101,1041.701C296.159,1041.538 295.224,1041.299 294.298,1040.972C290.134,1039.502 287.947,1034.929 289.416,1030.766C290.886,1026.602 295.459,1024.415 299.623,1025.884C300.797,1026.298 302.006,1025.856 303.27,1025.603C305.245,1025.207 307.268,1024.72 309.332,1024.439C313.697,1023.845 318.182,1024.088 322.816,1026.424C328.386,1029.233 334.777,1035.646 340.791,1050.681C355.657,1087.847 344.384,1104.551 335.955,1114.574C333.99,1116.912 331.257,1120.208 330.934,1120.598C330.363,1122.564 329.057,1124.243 327.28,1125.279C325.397,1126.376 323.148,1126.658 321.053,1126.06C312.258,1123.547 305.733,1123.149 300.839,1122.127C296.337,1121.187 292.817,1119.726 289.895,1117.239C285.971,1113.898 282.802,1108.371 280.979,1097.437C280.075,1092.007 281.177,1084.178 283.599,1075.787C287.175,1063.396 293.398,1049.505 297.101,1041.701ZM315.016,1040.455C314.909,1041.343 314.65,1042.228 314.227,1043.073C312.989,1045.55 305.992,1059.528 301.127,1073.494C298.296,1081.622 295.906,1089.669 296.762,1094.806C297.655,1100.168 298.316,1103.294 300.203,1105C301.981,1106.607 304.518,1106.598 307.798,1107.106C311.12,1107.622 314.989,1108.168 319.514,1109.172C319.923,1108.657 320.36,1108.132 320.823,1107.599C323.879,1104.084 328.527,1099.522 330.69,1091.841C332.936,1083.868 332.409,1072.808 325.935,1056.623C321.853,1046.418 318.773,1041.793 315.028,1040.46C315.024,1040.458 315.02,1040.457 315.016,1040.455Z"/>
        </g>
        <g transform="matrix(1,0,0,1,2.022426,-76.849779)">
            <path d="M378.097,999.512C378.958,995.181 383.172,992.363 387.503,993.224C391.833,994.084 394.651,998.298 393.791,1002.629C393.791,1002.629 385.387,1045.66 397.887,1123.161C398.59,1127.52 395.622,1131.629 391.263,1132.332C386.904,1133.035 382.794,1130.067 382.091,1125.708C369.004,1044.571 378.097,999.512 378.097,999.512Z"/>
        </g>
        <g transform="matrix(1,0,0,1,2.022426,-76.849779)">
            <path d="M379.288,1013.597C376.839,1009.924 377.833,1004.952 381.506,1002.503C385.18,1000.054 390.151,1001.048 392.6,1004.722C423.772,1051.479 427.704,1052.935 460.246,1089.299C496.196,998.493 485.129,957.263 485.129,920.176C485.129,915.76 488.714,912.176 493.129,912.176C497.545,912.176 501.129,915.76 501.129,920.176C501.129,960.168 513.34,1004.78 470.167,1107.315C469.099,1109.852 466.802,1111.661 464.086,1112.106C461.37,1112.55 458.616,1111.568 456.795,1109.504C415.442,1062.637 413.597,1065.061 379.288,1013.597Z"/>
        </g>
        <g transform="matrix(1,0,0,1,2.022426,-76.849779)">
            <path d="M568.488,1095.643C569.372,1096.93 569.89,1098.488 569.89,1100.166L569.89,1120.39C569.89,1124.715 566.452,1128.257 562.129,1128.386C557.806,1128.516 554.163,1125.186 553.904,1120.869C547.853,1020.013 551.545,1020.474 531.799,921.745C530.933,917.415 533.745,913.197 538.075,912.331C542.405,911.465 546.623,914.277 547.488,918.607C565.726,1009.795 564.219,1017.281 568.488,1095.643Z"/>
        </g>
        <g transform="matrix(1,0,0,1,2.022426,-76.849779)">
            <path d="M501.599,936.256C497.189,936.466 493.438,933.056 493.228,928.646C493.018,924.235 496.428,920.484 500.838,920.274C544.903,918.176 544.189,916.169 585.029,898.666C589.088,896.927 593.794,898.809 595.534,902.868C597.273,906.926 595.39,911.633 591.332,913.372C547.821,932.02 548.546,934.021 501.599,936.256Z"/>
        </g>
        <g transform="matrix(1,0,0,1,2.022426,-76.849779)">
            <path d="M574.524,1090.564C573.599,1087.781 574.243,1084.588 576.457,1082.375C577.163,1081.669 577.969,1081.122 578.829,1080.736C586.645,1057.797 607.399,1000.336 661.811,882.443C663.662,878.434 668.419,876.682 672.427,878.532C676.436,880.382 678.189,885.139 676.339,889.148C616.205,1019.437 597.482,1075.314 591.808,1092.336C591.776,1092.865 591.513,1097.176 591.231,1098.717C591.022,1099.863 590.696,1100.804 590.363,1101.509L589.11,1103.468L587.611,1104.865L586.165,1105.712L583.193,1106.456L581.037,1106.307L579.316,1105.768L576.456,1103.8L574.366,1100.778C573.754,1099.424 573.431,1097.936 573.426,1096.331C573.421,1094.897 574.11,1092.108 574.524,1090.564Z"/>
        </g>
        <g transform="matrix(1,0,0,1,2.022426,-76.849779)">
            <path d="M659.897,901.507C657.923,897.558 659.526,892.749 663.475,890.774C667.424,888.8 672.234,890.403 674.208,894.352C680.893,907.721 741.821,1030.144 767.761,1056.084C770.883,1059.207 770.883,1064.276 767.761,1067.398C764.638,1070.52 759.569,1070.52 756.447,1067.398C729.799,1040.75 666.764,915.242 659.897,901.507Z"/>
        </g>
        <g transform="matrix(1,0,0,1,2.022426,-76.849779)">
            <path d="M666.234,984.733C665.157,985.123 661.988,986.249 655.426,988.436C651.237,989.832 646.703,987.565 645.307,983.377C643.91,979.188 646.178,974.653 650.366,973.257C664.32,968.606 663.219,968.921 664.392,968.827C679.848,967.591 695.451,970.064 710.907,968.827C715.308,968.475 719.167,971.763 719.519,976.164C719.871,980.565 716.584,984.424 712.183,984.776C696.916,985.998 681.505,983.6 666.234,984.733Z"/>
        </g>
        <g transform="matrix(1,0,0,1,2.022426,-76.849779)">
            <path d="M742.073,912.351C743.213,913.357 745.588,915.36 747.878,916.719C757.978,922.714 774.744,928.992 792.232,934.074C809.869,939.199 828.252,943.087 841.449,944.04C845.374,944.324 848.784,944.354 851.483,944.009C852.363,943.897 853.565,943.565 853.93,943.461C857.071,940.727 861.845,940.854 864.834,943.843C867.956,946.965 867.956,952.035 864.834,955.157C863.25,956.74 860.931,958.151 857.786,959.037C853.486,960.248 846.884,960.565 838.817,959.883C815.273,957.891 777.537,947.848 753.205,937.239C741.527,932.148 732.81,926.615 729.074,921.967C725.691,917.757 725.05,913.558 726.099,909.889C737.505,869.966 786.796,839.49 828.046,835.366C832.439,834.926 836.363,838.136 836.802,842.53C837.241,846.923 834.031,850.847 829.638,851.286C794.914,854.758 752.892,879.085 742.073,912.351Z"/>
        </g>
        <g transform="matrix(1,0,0,1,2.022426,-76.849779)">
            <path d="M908.907,988.958C910.599,990.425 911.669,992.59 911.669,995.003L911.669,1011.182C911.669,1015.437 908.338,1018.948 904.089,1019.171C899.839,1019.394 896.159,1016.252 895.713,1012.02C891.251,969.633 883.934,949.26 878.168,928.765C872.139,907.339 867.661,885.796 869.385,840.996C869.554,836.584 873.274,833.14 877.686,833.309C882.098,833.479 885.542,837.199 885.373,841.611C883.415,892.498 889.85,911.69 897.216,937.023C901.213,950.768 905.472,966.241 908.907,988.958Z"/>
        </g>
        <g transform="matrix(1,0,0,1,2.022426,-76.849779)">
            <path d="M932.637,805.075C935.011,802.897 938.576,802.287 941.627,803.813C945.577,805.787 947.18,810.597 945.205,814.546L943.888,816.472C943.449,816.96 942.791,817.579 941.84,818.219C940.158,819.351 936.001,821.317 930.129,823.671C904.471,833.958 842.247,854.706 835.416,856.982C831.228,858.379 826.693,856.112 825.297,851.923C823.901,847.734 826.168,843.2 830.357,841.804C837.122,839.548 898.76,819.009 924.175,808.82C927.88,807.335 931.619,805.563 932.637,805.075Z"/>
        </g>
        <g transform="matrix(1,0,0,1,2.022426,-76.849779)">
            <path d="M951.651,935.689C952.195,937.208 952.286,938.906 951.809,940.575L947.764,954.731C946.581,958.874 942.329,961.335 938.148,960.299C933.966,959.263 931.356,955.101 932.244,950.885C950.672,863.347 942.093,862.642 960.557,774.94C961.466,770.619 965.712,767.85 970.033,768.759C974.354,769.669 977.123,773.915 976.213,778.236C959.15,859.287 965.183,866.036 951.651,935.689Z"/>
        </g>
        <g transform="matrix(1,0,0,1,2.022426,-76.849779)">
            <path d="M965.773,776.981C963.324,773.307 964.318,768.336 967.992,765.887C971.666,763.438 976.637,764.432 979.086,768.105C1061.687,892.007 1063.378,898.942 1067.084,911.911C1068.297,916.156 1065.835,920.588 1061.589,921.801C1057.344,923.014 1052.912,920.552 1051.699,916.306C1048.102,903.715 1045.973,897.28 965.773,776.981Z"/>
        </g>
        <g transform="matrix(1,0,0,1,2.022426,-76.849779)">
            <path d="M1009.286,853.683C1013.615,852.817 1017.833,855.629 1018.699,859.958C1019.565,864.288 1016.753,868.506 1012.424,869.372C1009.835,869.89 1007.186,869.859 1004.523,869.631C1002.422,869.451 1000.31,868.963 998.267,869.372C996.989,869.627 998.269,869.381 982.459,873.333C978.176,874.404 973.829,871.796 972.758,867.512C971.687,863.229 974.295,858.882 978.579,857.811C995.127,853.674 993.791,853.95 995.129,853.683C997.718,853.165 1000.367,853.195 1003.029,853.423C1005.131,853.603 1007.242,854.091 1009.286,853.683Z"/>
        </g>
        <g transform="matrix(1,0,0,1,2.022426,-76.849779)">
            <path d="M1065.644,783.89C1064.962,779.528 1067.951,775.432 1072.313,774.751C1076.675,774.069 1080.77,777.058 1081.452,781.42C1089.867,835.274 1087.942,834.793 1103.469,887.583C1105.47,894.388 1123.764,956.603 1127.823,972.839C1128.894,977.123 1126.286,981.47 1122.003,982.541C1117.719,983.612 1113.372,981.003 1112.301,976.72C1108.272,960.604 1090.106,898.852 1088.119,892.098C1072.293,838.287 1074.221,838.785 1065.644,783.89Z"/>
        </g>
        <g transform="matrix(1,0,0,1,2.022426,-76.849779)">
            <path d="M1090.12,803.468C1086.446,805.917 1081.475,804.923 1079.026,801.249C1076.577,797.575 1077.571,792.604 1081.245,790.155C1086.046,786.954 1088.682,784.189 1091.052,782.28C1096.478,777.909 1100.836,775.669 1113.913,778.939C1118.237,780.02 1135.786,786.612 1138.982,802.522C1140.225,808.709 1139.489,816.48 1134.369,825.998C1129.607,834.852 1120.649,845.728 1105.209,858.819C1131.327,858.809 1150.737,856.183 1227.641,907.452C1231.314,909.901 1232.308,914.873 1229.859,918.546C1227.41,922.22 1222.439,923.214 1218.765,920.765C1128.221,860.402 1121.31,878.663 1082.602,873.502C1079.366,873.07 1076.717,870.715 1075.909,867.552C1075.101,864.389 1076.296,861.051 1078.929,859.121C1098.533,844.744 1110.487,833.045 1117.174,823.43C1122.447,815.849 1124.197,810.165 1123.295,805.673C1122.554,801.981 1119.925,799.55 1117.404,797.851C1114.359,795.799 1111.245,794.764 1110.033,794.461C1106.631,793.61 1104.571,793.159 1102.937,793.589C1101.545,793.956 1100.708,795.034 1099.375,796.201C1097.086,798.205 1094.3,800.681 1090.12,803.468Z"/>
        </g>
        <g transform="matrix(1,0,0,1,2.022426,-76.849779)">
            <path d="M197.952,1268.775C200.885,1265.474 205.946,1265.177 209.246,1268.11C212.546,1271.044 212.844,1276.104 209.911,1279.404C150.444,1346.305 147.296,1344.192 114.286,1426.716C112.646,1430.815 107.986,1432.812 103.887,1431.172C99.787,1429.532 97.79,1424.873 99.43,1420.773C133.476,1335.661 136.62,1337.773 197.952,1268.775Z"/>
        </g>
        <g transform="matrix(1,0,0,1,2.022426,-76.849779)">
            <path d="M277.952,1501.329C277.959,1501.343 277.965,1501.358 277.972,1501.372C279.772,1505.397 277.977,1510.119 273.958,1511.932C269.939,1513.744 265.211,1511.963 263.386,1507.949L263.367,1507.906L253.275,1485.703C252.744,1484.537 252.518,1483.308 252.562,1482.108C237.077,1442.286 231.299,1412.577 225.7,1382.844C219.142,1348.02 212.839,1313.161 190.511,1261.062C188.772,1257.004 190.655,1252.297 194.713,1250.557C198.771,1248.818 203.478,1250.701 205.217,1254.759C228.161,1308.294 234.685,1344.1 241.423,1379.883C247.973,1414.663 254.735,1449.42 277.952,1501.329Z"/>
        </g>
        <g transform="matrix(1,0,0,1,2.022426,-76.849779)">
            <path d="M225.371,1357.189C229.735,1357.86 232.733,1361.948 232.062,1366.312C231.391,1370.676 227.303,1373.674 222.939,1373.003C199.796,1369.442 176.889,1367.361 172.872,1366.996C158.932,1365.729 159.597,1366.84 146.798,1362.573C142.609,1361.177 140.342,1356.643 141.738,1352.454C143.134,1348.265 147.669,1345.998 151.857,1347.395C162.872,1351.066 162.323,1349.971 174.32,1351.062C178.417,1351.434 201.774,1353.559 225.371,1357.189Z"/>
        </g>
        <g transform="matrix(1,0,0,1,2.022426,-76.849779)">
            <path d="M308.809,1253.96C313.953,1253.777 320.033,1252.128 326.9,1250.947C339.178,1248.835 353.521,1247.97 369.275,1255.302C385.861,1263.021 404.433,1280.209 423.389,1316.935C442.383,1353.737 441.586,1384.998 430.576,1409.417C414.037,1446.098 373.716,1467.572 339.21,1469.363C312.643,1470.742 289.773,1460.511 281.404,1438.75C256.503,1374.009 259.191,1331.669 269.164,1304.031C279.328,1275.865 297.22,1262.516 303.438,1256.298C304.868,1254.868 306.787,1254.033 308.809,1253.96ZM312.512,1269.712C305.724,1275.87 292.162,1287.435 284.214,1309.462C275.062,1334.824 273.487,1373.595 296.337,1433.007C302.315,1448.55 319.405,1454.369 338.381,1453.384C367.626,1451.866 401.972,1433.929 415.99,1402.841C425.35,1382.08 425.319,1355.561 409.171,1324.273C392.597,1292.162 377.026,1276.557 362.524,1269.808C350.299,1264.118 339.14,1265.076 329.612,1266.715C323.291,1267.803 317.552,1269.155 312.512,1269.712Z"/>
        </g>
        <g transform="matrix(1,0,0,1,2.022426,-76.849779)">
            <path d="M345.907,1368.73C342.785,1365.608 342.785,1360.539 345.907,1357.417C349.029,1354.295 354.099,1354.295 357.221,1357.417C474.918,1475.113 492.078,1500.203 501.744,1514.263C504.246,1517.902 503.322,1522.887 499.684,1525.388C496.046,1527.889 491.061,1526.966 488.559,1523.328C479.026,1509.46 461.992,1484.814 345.907,1368.73Z"/>
        </g>
        <g transform="matrix(1,0,0,1,2.022426,-76.849779)">
            <path d="M468.95,1233.642C468.95,1229.227 472.535,1225.642 476.95,1225.642C481.366,1225.642 484.95,1229.227 484.95,1233.642C484.95,1298.942 483.525,1345.676 485.231,1382.339C487.322,1427.252 494.159,1456.529 514.917,1486.895C530.546,1265.219 547.435,1224.478 556.508,1202.3C558.18,1198.213 562.855,1196.253 566.941,1197.925C571.028,1199.597 572.988,1204.272 571.317,1208.358C562.115,1230.85 545.185,1272.814 529.425,1509.216C529.207,1512.479 527.025,1515.282 523.914,1516.292C520.803,1517.303 517.391,1516.318 515.297,1513.805C482.051,1473.91 471.912,1440.317 469.249,1383.083C467.534,1346.237 468.95,1299.268 468.95,1233.642Z"/>
        </g>
        <g transform="matrix(1,0,0,1,2.022426,-76.849779)">
            <path d="M618.608,1229.387C618.724,1224.973 622.402,1221.484 626.816,1221.6C631.23,1221.716 634.719,1225.394 634.603,1229.808C630.701,1378.065 620.601,1376.103 594.029,1522.249C593.239,1526.593 589.071,1529.479 584.727,1528.689C580.383,1527.899 577.497,1523.731 578.287,1519.387C604.639,1374.455 614.739,1376.412 618.608,1229.387Z"/>
        </g>
        <g transform="matrix(1,0,0,1,2.022426,-76.849779)">
            <path d="M701.967,1094.388C705.156,1091.334 710.224,1091.444 713.278,1094.633C716.332,1097.822 716.222,1102.891 713.033,1105.944C713.033,1105.944 690.498,1127.935 670.597,1187.635C669.201,1191.824 664.667,1194.091 660.478,1192.695C656.289,1191.299 654.022,1186.764 655.418,1182.576C676.976,1117.905 701.967,1094.388 701.967,1094.388Z"/>
        </g>
        <g transform="matrix(1,0,0,1,2.022426,-76.849779)">
            <path d="M859.088,1644.182C859.088,1648.597 855.503,1652.182 851.088,1652.182C846.672,1652.182 843.088,1648.597 843.088,1644.182C843.088,1482.812 812.854,1487.744 796.635,1357.999C794.38,1339.954 800.795,1323.564 814.286,1308.815C826.631,1295.32 845.138,1283.135 868.008,1272.283C970.259,1223.766 1162.03,1200.701 1254.41,1185.304C1258.765,1184.578 1262.89,1187.524 1263.616,1191.88C1264.342,1196.235 1261.396,1200.36 1257.04,1201.086C1165.691,1216.311 975.978,1238.763 874.867,1286.738C854.16,1296.564 837.269,1307.396 826.092,1319.615C816.062,1330.58 810.835,1342.598 812.512,1356.014C828.841,1486.645 859.088,1481.71 859.088,1644.182Z"/>
        </g>
        <g transform="matrix(1,0,0,1,2.022426,-76.849779)">
            <path d="M1242.859,1196.536C1224.626,1194.719 1186.864,1190.369 1135.112,1168.19C1131.054,1166.451 1129.171,1161.744 1130.91,1157.686C1132.65,1153.627 1137.357,1151.745 1141.415,1153.484C1194.578,1176.268 1232.325,1179.406 1248.11,1180.977C1253.412,1181.505 1256.829,1182.155 1258.305,1182.8L1260.077,1183.795L1261.562,1185.122L1262.807,1186.94L1263.615,1189.403L1263.489,1192.749L1261.989,1195.935C1243.178,1221.326 1207.145,1326.815 1180.405,1433.774C1179.334,1438.058 1174.987,1440.666 1170.703,1439.595C1166.42,1438.524 1163.812,1434.177 1164.883,1429.894C1189.555,1331.207 1222.477,1233.924 1242.859,1196.536Z"/>
        </g>
        <g transform="matrix(1,0,0,1,2.022426,-76.849779)">
            <path d="M197.455,1778.563C199.645,1773.646 203.245,1767.135 209.192,1758.759C221.436,1741.514 244.382,1715.215 287.587,1676.64C352.425,1618.749 365.406,1595.758 368,1593.566L370.694,1591.994L373.27,1591.506L375.71,1591.808L378.041,1592.884L379.984,1594.707L381.207,1596.936C381.477,1597.673 381.81,1599.275 381.81,1601.712C381.81,1628.158 352.291,1805.78 349.343,1823.465C349.194,1824.36 349.119,1825.577 349.084,1826.347C349.783,1826.54 350.888,1826.816 351.866,1826.924C354.813,1827.25 358.651,1827.234 363.608,1826.936C396.71,1824.948 474.611,1810.468 651.709,1783.903C654.94,1783.419 658.141,1784.947 659.795,1787.764C661.449,1790.581 661.224,1794.121 659.226,1796.706C639.008,1822.872 632.752,1838.592 625.54,1853.469C617.832,1869.367 609.175,1884.412 583.592,1908.832C580.692,1911.6 578.344,1913.037 572.938,1915.877C562.584,1921.317 538.829,1933.427 465.209,1982.506C461.535,1984.955 456.564,1983.961 454.115,1980.287C451.666,1976.614 452.66,1971.643 456.334,1969.193C530.923,1919.468 555.006,1907.224 565.497,1901.713C569.025,1899.859 570.652,1899.065 572.545,1897.258C600.877,1870.213 606.763,1855.662 615.563,1837.206C620.235,1827.408 625.67,1816.578 635.183,1802.571C441.16,1831.874 372.562,1845.309 350.108,1842.827C341.658,1841.893 337.483,1838.709 335.246,1835.077C333.108,1831.605 332.549,1826.904 333.561,1820.835C336.014,1806.116 357.207,1679.318 363.836,1624.045C352.067,1637.478 331.769,1658.641 298.243,1688.575C256.402,1725.933 234.096,1751.32 222.239,1768.021C211.815,1782.703 210.13,1789.504 209.94,1791.655C209.835,1792.856 209.734,1793.504 209.691,1793.683L208.156,1796.812L206.826,1798.145L205.214,1799.167L202.008,1800.023C200.27,1800.146 196.389,1799.341 191.878,1795.486C175.288,1781.309 122.082,1713.773 90.103,1658.25C86.789,1652.497 83.708,1646.863 80.914,1641.419C86.136,1717.706 95.979,1837.062 104.666,1897.869C105.29,1902.24 102.248,1906.295 97.877,1906.92C93.506,1907.544 89.451,1904.502 88.826,1900.131C76.124,1811.217 61.01,1598.029 61.198,1573.653C61.228,1569.845 62.26,1567.755 62.556,1567.275L64.432,1565.168L67.22,1563.745L70.668,1563.54L73.406,1564.505L75.397,1566.112L76.792,1568.253C77.29,1569.353 78.71,1577.571 80.438,1594.849C81.607,1606.538 89.161,1623.541 99.695,1642.682C125.499,1689.571 169.631,1748.166 192.741,1773.671C194.29,1775.38 195.926,1777.057 197.455,1778.563Z"/>
        </g>
    </g>
</svg>
