<?xml version="1.0" encoding="UTF-8" standalone="no"?>
<!DOCTYPE svg PUBLIC "-//W3C//DTD SVG 1.1//EN" "http://www.w3.org/Graphics/SVG/1.1/DTD/svg11.dtd">
<svg width="100%" height="100%" viewBox="0 0 372 221" version="1.1" xmlns="http://www.w3.org/2000/svg" xmlns:xlink="http://www.w3.org/1999/xlink" xml:space="preserve" xmlns:serif="http://www.serif.com/" style="fill-rule:evenodd;clip-rule:evenodd;stroke-linejoin:round;stroke-miterlimit:2;">
    <g transform="matrix(1,0,0,1,-10.15,-608.11)">
        <path d="M271.32,745.73L271.12,744.88C271.6,745.34 272.49,745.82 272.48,746.27C272.42,749.27 273.7,749.27 275.73,747.95C277.498,747.279 279.207,746.463 280.84,745.51C285,742.64 288.75,739.03 293.18,736.73C296.863,734.818 300.941,733.791 305.09,733.73C310.56,733.73 314.98,739.73 316.36,746.42C317.49,751.95 319.16,757.42 320.54,762.86C321.04,764.86 321.83,766.96 321.7,768.96C321.44,772.73 318.39,773.42 315.26,774.2C312.47,774.882 309.816,776.031 307.41,777.6C304.56,779.51 302.16,782.08 299.54,784.33C298.41,785.33 296.16,786.26 296.23,787.06C296.42,789.06 297.57,791.06 298.46,793.06C298.69,793.56 299.36,793.87 299.83,794.27C300.145,793.809 300.403,793.312 300.6,792.79C301.72,788.24 304.6,784.58 308.8,783.43C315.73,781.55 322.97,780.79 330.09,779.61C334.09,778.95 338.21,778.78 342.09,777.73C346.67,776.48 350.93,774 355.54,773.03C359.472,772.255 370.023,780.405 371.84,783.977C375.662,791.493 375.286,780.721 368.853,771.327C368.276,770.484 368.576,765.149 359.6,764.79C352.322,764.499 345.47,768.32 338.38,769.99C334.29,770.99 330.6,770.12 328.27,766.44C326.444,763.32 324.792,760.102 323.32,756.8C321.263,753.015 320.942,748.519 322.44,744.48C324.5,739.32 324.61,738.6 320.2,734.73C319.39,734.03 318.69,733.19 317.94,732.42C322.44,733.28 324.11,737.16 326.38,740.42C326.551,740.791 326.521,741.226 326.3,741.57C321.9,745.91 323.11,751.12 324.71,755.88C326.136,759.848 328.189,763.562 330.79,766.88C331.79,768.23 334.7,769 336.55,768.72C342.98,767.78 355.618,761.787 364.04,765.557C383.824,774.413 383.539,830.415 336.18,813.22C329.494,810.792 321.99,815.35 314.97,816.85C311.984,817.663 309.07,818.724 306.26,820.02C305.683,820.323 305.215,820.799 304.92,821.38C302.92,825.08 300.65,825.76 296.8,823.88C295.776,823.356 294.657,823.043 293.51,822.96C292.96,822.96 292.45,823.96 291.81,824.27C290.72,824.83 289.4,825.83 288.44,825.58C283.73,824.38 278.14,824.58 274.87,828.35C274.55,828.72 274.21,829.06 273.87,829.41L267.87,829.41C268.12,828.87 268.24,827.98 268.64,827.83C275.7,825.26 282.73,822.58 289.92,820.4C291.77,819.84 294.17,820.67 296.22,821.23C299.28,822.05 301.78,822.47 304.13,819.33C307.83,814.39 313.98,815.08 319.22,813.81C323.41,812.81 328.008,809.407 331.91,811.25C370.736,829.592 391.653,788.219 357.5,774.22C351.879,771.916 346.18,778.75 340.32,780.22C336.14,781.22 331.6,780.71 327.26,781.22C319.21,782.1 310.82,782.22 304.85,789.02C303.698,790.401 302.908,792.047 302.55,793.81C301.79,797.53 301.45,801.34 300.88,805.11C300.82,805.5 300.41,805.83 300.16,806.19C299.74,805.54 298.87,804.83 298.96,804.26C299.22,802.46 296.79,800.21 299.83,798.77C300.08,798.65 299.83,796.33 299.48,796.24C298.402,795.918 297.243,796.011 296.23,796.5C295.295,797.159 294.68,798.184 294.54,799.32C294.45,801.86 295.15,804.44 294.9,806.95C294.65,809.46 294.2,812.23 292.75,814C291.3,815.77 288.67,816.23 286.45,817C279.9,819.29 273.39,821.82 266.68,823.51C262.84,824.51 258.68,824.12 254.6,824.16C251.35,824.16 248.09,823.95 244.84,823.8C244.35,823.8 243.67,823.8 243.4,823.56C241.26,821.33 239.14,822.67 237.01,823.49C235.42,819.72 231.6,820.34 229.01,820.42C223.7,820.59 219.35,818.23 215.3,815.87C211.25,813.51 206.97,810.19 205.3,806.22C203.08,801.06 202.3,794.72 206.55,789.47C209.03,786.4 211.72,783.47 214.25,780.47C216.33,778.47 214.77,775.08 214.77,775.08C214.77,775.08 212.4,769.84 211.14,767.26C210.88,766.73 207.99,763.06 207.14,761.56C206.03,759.48 205.14,757.27 203.98,755.23C203.299,754.951 202.525,755.007 201.89,755.38C200.411,757.484 199.094,759.697 197.95,762C197.863,762.884 198.242,763.753 198.95,764.29C205.56,767.16 207.95,772.91 206.71,779.1C205.76,784 202.25,788.28 198.03,791.74C191.74,796.91 184.13,797.38 176.73,799.14C168.39,801.14 160.31,804.2 152.12,806.81C146.12,808.72 140.04,810.42 134.12,812.6C128,814.76 122.5,812 117,810.4C114.45,809.66 112.37,806.98 110.31,804.94C107.75,802.4 105.71,799.36 101.85,798.38C100.4,798.01 99.26,796.57 97.85,795.92C97.1,795.57 96.06,795.92 95.15,795.92C95.5,796.63 95.8,797.36 96.15,798.04C97.15,799.8 98.26,801.53 99.31,803.28C98.78,802.66 98.25,802.03 97.7,801.42C95.78,799.31 94.13,798.33 90.7,799.32C85.26,800.87 79.38,800.92 73.7,801.44C71.615,801.555 69.525,801.494 67.45,801.26C66.772,801.107 66.121,800.851 65.52,800.5C66.091,800.205 66.705,800.003 67.34,799.9C72.24,799.9 77.17,800.2 82.04,799.8C85.28,799.511 88.444,798.658 91.39,797.28C92.73,796.67 94.39,794 93.97,792.91C93.17,790.55 91.08,789.51 88.92,792.18C85.62,796.25 80.78,794.99 76.52,795.61C69.94,796.61 63.35,797.34 56.76,798.21C55.183,798.385 53.629,798.72 52.12,799.21C53.53,799.21 54.95,799.14 56.36,799.21C56.946,799.362 57.503,799.609 58.01,799.94C57.48,800.24 57.01,800.79 56.42,800.81C54.53,800.89 52.54,800.4 50.76,800.81C45.96,801.93 41.24,803.42 36.5,804.76L36.62,802.92L34.78,804L36.5,804.72C34.69,806.72 32.91,808.78 31.07,810.72C29.23,812.66 28.63,814.8 29.76,817.35C29.93,817.75 29.71,818.35 29.68,818.83C29.265,818.497 28.889,818.118 28.56,817.7C26.82,814.99 28.11,812.7 29.56,810.38C29.732,810.025 29.866,809.653 29.96,809.27C29.534,809.39 29.131,809.583 28.77,809.84C24.94,813.84 26.55,821.23 31.68,823.45C37.91,826.14 44.05,824.38 50.06,822.23L52.6,822.23L52.6,822.17C53.24,823.33 49.69,823.94 52.2,825.34C51.79,825.53 51.38,825.88 50.97,825.88C45.97,825.88 41.05,825.98 36.09,825.88C29.59,825.77 25.2,820.88 25.48,814.32C25.64,810.61 25.03,806.76 25.79,803.2C26.41,800.33 28.57,797.8 30.05,795.11C28.99,798.43 27.9,801.74 26.9,805.11C26.708,805.916 26.671,806.75 26.79,807.57C26.79,807.79 27.74,808.15 27.79,808.11C32.7,801.36 40.02,799.31 47.66,798.18C58,796.7 68.49,795.55 78.93,794C81.433,793.45 83.87,792.636 86.2,791.57C86.72,791.37 87.47,790.44 87.36,790.16C87.12,789.58 86.36,788.82 85.83,788.82C81.69,788.77 77.42,788.28 73.44,789.11C67.67,790.33 63.44,787.49 58.91,785.11C58.63,784.96 58.53,784.46 58.35,784.11C58.74,784.11 59.28,783.86 59.49,784.04C65.73,789.56 72.89,787.45 79.94,786.68C82.019,786.445 84.125,786.632 86.13,787.23C88.7,788.05 88.47,786.59 88.37,785.09C88.07,780.33 85.55,778.79 80.92,779.46C77.123,779.905 73.287,779.905 69.49,779.46C66.83,779.21 66.29,777.19 68.05,775.01C68.787,774.222 69.674,773.589 70.66,773.15C76.06,770.28 77.6,763.41 72.83,759.99C72.24,759.57 71.98,758.67 71.57,757.99C72.31,758.25 73.32,758.28 73.74,758.8C77.14,763.04 80.45,767.36 83.74,771.69C83.94,771.96 83.74,772.54 83.74,772.98C81.87,770.71 80.01,768.44 78.11,766.2C77.772,765.893 77.395,765.631 76.99,765.42C76.824,765.857 76.717,766.315 76.67,766.78C76.81,769.87 75.37,771.86 72.76,773.43C71.3,774.31 70.25,775.88 69.02,777.15C70.65,777.58 72.29,778.37 73.92,778.37C77.52,778.37 81.36,779.04 84.32,775.91C84.56,775.66 86.32,776.23 86.7,776.84C88.425,779.583 89.961,782.439 91.3,785.39C94.13,791.89 99.47,795.23 105.77,797.46C110.87,799.26 115.91,801.35 121.13,802.63C123.55,803.22 126.41,802.39 128.99,801.85C132.29,801.14 135.51,800.03 138.79,799.22C139.27,799.1 139.93,799.68 140.51,799.94C140.11,800.35 139.76,801.04 139.3,801.13C132.58,802.36 125.86,804.13 119.08,804.43C115.79,804.58 112.37,802.02 109.01,800.69C116.39,810.12 126.48,813.51 137.74,809.69C144.06,807.56 149.93,804.08 156.27,802.06C163.69,799.71 171.42,798.34 178.99,796.44C187.59,794.29 196.31,792.55 201.74,784.16C205.74,778.02 205.4,769.96 200.31,766.72C197.14,764.72 196.31,765.22 194.22,768.35C189.66,775.35 185.12,782.24 177.74,786.98C173.2,789.9 168.28,790.15 163.5,791.51C161.62,792.04 159.41,792.51 158.09,793.73C153.81,797.79 147.94,797.67 143.02,799.97C142.65,800.14 142.02,799.73 141.49,799.58C141.86,799.13 142.13,798.44 142.6,798.26C145.6,797.09 148.76,796.2 151.72,794.9C156.09,792.99 159.85,790.37 162.46,786.09C164.4,782.92 167.36,780.38 169.37,777.24C170.32,775.75 170.03,773.49 170.44,771.61C170.67,770.61 170.99,768.96 171.62,768.77C175.62,767.54 177.13,764.12 179.07,760.94C182.47,755.34 186.07,749.87 189.73,744.43C191.82,741.33 191.55,740.71 188.02,739.81C186.586,739.398 185.398,738.388 184.76,737.04C184.07,734.93 184.24,732.55 183.97,730.3C183.802,728.34 183.491,726.395 183.04,724.48C181.5,718.81 182.41,713.33 184.04,707.89C184.15,707.52 184.71,707.29 185.04,706.99C185.16,707.49 185.5,708.06 185.36,708.46C182.75,715.66 184.9,722.73 185.88,729.83L186.51,734.37L186.51,734.61C190.28,732.53 188.59,736.74 189.51,737.68C196.379,744.344 202.904,751.353 209.06,758.68C211.5,761.6 212.62,765.62 214.37,769.13C215.37,771.13 216.52,774.33 217.58,775.03C218.64,775.73 219.31,775.03 220.14,774.7C220.61,774.53 220.41,773.62 221.27,773.43C222.13,773.24 222.49,774.35 222.5,774.82C222.5,777.23 222.42,779.65 222.25,782.06C222.25,782.44 221.54,783.15 221.33,783.06C217.33,781.92 219.17,784.89 219.08,786.29C218.845,789.284 218.765,792.288 218.84,795.29C219.154,800.288 223.353,804.232 228.361,804.232C228.826,804.232 229.29,804.198 229.75,804.13C236.55,803.13 242.75,804.99 248.75,808.13C252.24,809.98 255.8,811.69 259.35,813.43C260.72,813.66 260.76,812.43 260.69,812.43C259.522,811.506 258.238,810.739 256.87,810.15C258.06,810.25 260.03,810.99 261.21,811.06C262.32,810.57 261.98,809.93 262.21,809.91C261.63,809.12 260.32,808.8 259.76,808.03C260.62,808.13 262.2,808.76 263.06,808.9C264.37,809.12 264.23,807.4 262.62,806.81C263.62,806.81 264.69,806.9 265.73,806.81C266.41,806.81 266.61,805.24 265.87,804.96C265.279,804.69 264.667,804.469 264.04,804.3C264.42,803.92 265.94,804.3 266.33,803.88C266.681,803.573 266.819,803.085 266.68,802.64C266.291,801.691 265.656,800.862 264.84,800.24C259.44,797.05 253.12,794.86 248.75,790.63C244.38,786.4 240.1,781.47 238.49,774.91C238.04,773.1 236.7,769.91 233,770.13C232,770.19 230.87,767.76 229.84,766.44C229.76,766.34 229.98,766.01 230.06,765.79C230.43,765.89 230.791,766.021 231.14,766.18C231.96,766.59 233.14,768.12 233.57,767.48C234,766.84 233.57,765.19 233.23,764.16C232.28,761.32 230.9,758.6 230.15,755.72C228.38,749 226.89,742.2 225.27,735.44C225.083,733.613 225.052,731.773 225.18,729.94C225.951,730.668 226.669,731.45 227.33,732.28C230.33,736.7 233.33,740.97 238.01,744.02C240.53,745.68 242.39,748.41 244.39,750.79C247.65,754.66 250.59,758.79 254.01,762.55C259.13,768.14 261.41,775 263.59,781.99C264.985,786.946 266.654,791.82 268.59,796.59C269.4,798.46 271.66,799.84 273.53,801.04C274.65,801.76 275.2,806.18 277.92,801.91C278.67,800.73 281.26,802.27 282.06,804.51C282.45,805.6 285.27,804.44 285.41,803.03C285.46,802.5 285.06,801.93 284.93,801.36C284.69,800.27 284.5,799.17 284.28,798.08C285.05,798.8 285.8,799.54 286.58,800.24C286.93,800.54 288.08,799.98 288.03,799.49C287.93,798.44 287.68,797.41 287.49,796.37C288.36,797.43 290.62,797.22 290.33,795.55C290.19,794.72 290.13,793.89 290.04,793.05C291.047,793.124 292.048,793.254 293.04,793.44C293.68,793.59 295.31,792.64 295.04,792.09C292.727,787.743 290.337,783.44 287.87,779.18C286.05,776.04 284.16,772.94 282.12,769.95C280.93,768.45 279.5,767.23 278.39,765.72C276.39,763.03 274.28,760.37 274.21,756.72C274.21,756.56 274.07,756.41 274.07,756.25C274.13,754.17 273.43,753.05 272.12,751.49C270.82,749.774 269.631,747.977 268.56,746.11C267.3,742.11 265.85,738.23 262.1,735.75C261.566,735.346 261.225,734.736 261.16,734.07C261.08,728.97 258.06,725.26 255.59,721.14C252.73,716.38 250.81,711.05 248.33,706.04C245.98,701.29 243.6,696.54 240.89,691.99C239.89,690.3 237.89,689.18 236.41,687.79C238.01,688.34 240.29,688.39 241.09,689.51C243.61,693.193 245.914,697.02 247.99,700.97C252.38,708.87 256.75,716.79 260.99,724.76C263.7,729.83 266.11,735.07 268.89,740.11C269.36,740.95 271.36,741.87 272.04,741.53C277.04,739 281.92,736.16 286.83,733.43C294.17,729.36 301.55,725.15 310.42,727.43C312.54,727.99 314.34,729.77 316.29,730.99C316.04,730.99 315.74,731.06 315.55,730.99C307.9,726.52 300.43,728.45 293.28,732.07C289.05,734.2 285.33,737.31 281.21,739.68C277.95,741.56 274.42,742.97 271.01,744.59M248.47,758.04C246.65,755.39 246.66,755.41 244.85,756.85C244.413,757.136 243.947,757.374 243.46,757.56C243.205,756.876 242.908,756.208 242.57,755.56C241.49,753.74 234.57,744.62 232.57,742.34C231.73,741.4 230.19,741.09 228.97,740.49C229.31,741.59 232.33,751.68 233.41,755.41C233.54,756.42 233.731,757.422 233.98,758.41C234.36,759.31 234.98,760.51 235.74,760.77C240.49,762.34 244.47,759.91 248.52,757.99C247.72,760.93 242.38,763.71 237.8,763.78C237.25,763.78 236.17,764.96 236.27,765.37C237.09,768.93 237.49,772.88 242.27,773.6C242.7,773.67 242.99,774.71 243.35,775.29C240.05,777.07 242.22,778.84 243.47,780.43C244.323,781.418 245.309,782.283 246.4,783C245.88,782.19 245.33,781.39 244.84,780.55C244.555,780.012 244.301,779.458 244.08,778.89C244.706,779.019 245.303,779.263 245.84,779.61C248.51,782.34 251.84,784.77 253.55,788.01C256.05,792.64 258.82,796.31 264.1,797.68C265.89,798.15 266.59,797.82 266.02,796.02C265.02,792.85 263.92,789.71 262.76,786.59C262.5,785.88 261.96,784.94 261.35,784.75C257.2,783.47 254.87,780.21 252.48,776.98C252.237,776.52 252.058,776.029 251.95,775.52C252.462,775.68 252.948,775.916 253.39,776.22C255.25,778 257,779.89 258.89,781.64C259.28,782 260.07,781.93 260.67,782.06C260.75,781.44 261.1,780.69 260.87,780.21C259.25,776.7 259.58,772.15 255.39,770.01C254.1,769.35 252.89,768.53 251.65,767.78C251.39,769.24 251.11,770.7 250.86,772.17C250.79,772.62 250.78,773.09 250.74,773.55C250.34,773.2 249.57,772.8 249.6,772.49C249.84,770.27 250.26,768.08 250.6,765.87C250.8,764.49 251.3,763 250.98,761.74C250.66,760.48 249.44,759.52 248.62,758.44L248.47,758.04ZM320.24,768.42C320.141,767.67 320.005,766.926 319.83,766.19C318.83,763.54 317.72,760.95 316.96,758.19C315.44,752.75 314.36,747.19 312.67,741.8C311.55,738.24 309.04,735.01 305.07,735.12C299.07,735.29 293.16,736.69 288.57,741.2C285.99,743.74 283.3,746.2 280.72,748.69C279.623,749.741 278.619,750.885 277.72,752.11C275.87,754.71 279.12,754.27 279.72,755.39C280.87,757.39 283.3,759.27 280.23,761.71C279.86,762 279.94,763.42 280.3,764.01C282.13,767.01 284.07,769.88 286.06,772.74C288.32,775.99 290.65,779.21 293.06,782.36C293.549,782.954 294.291,783.284 295.06,783.25C296.97,782.5 299.13,781.81 300.55,780.43C305.05,776.08 309.67,772.29 316.24,771.43C318,771.7 319.34,769.69 320.39,768.82L320.24,768.42ZM229.9,806.01L227.07,806.01C223.39,806.01 217.81,802.48 217.26,799.3C216.67,795.89 216.77,792.37 216.31,788.94C215.928,787.175 215.396,785.445 214.72,783.77C213.57,784.71 212.4,785.64 211.26,786.61C210.889,786.933 210.554,787.295 210.26,787.69C207.72,791 204.26,794.18 205.71,798.83C206.56,801.68 208.38,804.29 210.06,806.83C212.62,810.68 215.56,814.15 220.92,813.77C221.26,813.77 221.63,814.27 222,814.52C223.14,815.29 224.2,816.52 225.46,816.75C231.12,817.95 236.85,818.75 242.53,819.94C252.85,822.02 263.05,822.7 272.99,818.21C275.99,816.86 278.9,815.05 282.04,814.47C287.04,813.55 291.16,812.05 292.52,806.67C292.81,805.52 292.35,804.17 292.23,802.91C291.376,803.472 290.558,804.087 289.78,804.75C287.78,806.62 286.16,808.91 283.95,810.38C281.51,812 278.6,812.9 275.88,814.08C275.568,814.232 275.21,814.257 274.88,814.15C272.426,812.481 269.166,812.545 266.78,814.31C264.018,816.297 260.424,816.742 257.26,815.49C253.59,813.96 250.48,811.17 246.97,809.2C241.761,806.524 235.842,805.548 230.05,806.41L229.9,806.01ZM192.9,742.69C192.46,743.24 190.19,746.77 189.35,748C186.56,752.14 183.71,756.24 180.93,760.39C180.62,760.85 180.29,761.69 180.5,762.03C182.14,764.67 179.66,765.15 178.42,766.36C177.66,767.11 166.26,783.79 163.64,787.85C163.43,788.16 163.26,788.49 163.08,788.85C163.52,789 163.986,789.061 164.45,789.03C171.92,786.83 179.35,784.4 184.54,778.11C186.7,775.48 195.73,761.33 198.15,757.02C201.46,751.11 201.3,751.02 196.25,746.12C195.66,745.79 193.63,743.6 193,743.09L192.9,742.69ZM248.38,783.73C248.02,785.03 247.67,785.65 247.83,785.83C249.37,787.62 250.99,789.35 252.62,791.06C252.68,791.12 253.08,790.86 253.32,790.74L248.38,783.73ZM220.51,779C219.74,778.15 219.16,777.51 218.51,776.9C218.51,776.9 217.89,777.38 217.93,777.44C218.344,778.187 218.808,778.906 219.32,779.59C219.731,779.425 220.129,779.227 220.51,779ZM31.13,808.42C31.77,807.42 32.07,807.02 32.34,806.57C32.229,806.454 32.101,806.356 31.96,806.28C31.56,806.648 31.192,807.05 30.86,807.48C30.78,807.58 31,807.88 31.13,808.42Z" style="fill-rule:nonzero;"/>
    </g>
    <g transform="matrix(1,0,0,1,-10.15,-608.11)">
        <path d="M107.87,829.36C115.01,822.79 122.63,817.52 132.87,816.84C144.54,816.07 155.72,813.71 166.51,808.27C174.37,804.27 183.74,803.66 192.77,804.69C194.61,804.9 196.46,806.29 198,807.51C203.43,811.79 208.5,816.51 214.17,820.45C216.66,822.17 220.28,822.19 223.35,823.13C226.86,824.21 230.35,825.44 233.79,826.66C234.03,826.74 234.29,827.55 234.21,827.66C233.82,827.98 233.21,828.45 232.86,828.35C230.41,827.65 228.02,826.71 225.56,826.05C223.1,825.39 220.47,825.4 218.25,824.37C214.25,822.54 209.76,821.73 206.85,817.81C205.255,815.621 203.209,813.8 200.85,812.47C196.76,810.28 193.85,805.62 188.39,806.18C180.65,806.97 172.83,807.43 165.7,811C156.22,815.74 146.05,817.75 135.61,818.4C127.344,818.859 119.411,821.832 112.88,826.92C111.59,827.814 110.255,828.642 108.88,829.4L107.87,829.36Z" style="fill-rule:nonzero;"/>
    </g>
    <g transform="matrix(1,0,0,1,-10.15,-608.11)">
        <path d="M22.93,829.36C15.41,825.87 12.25,818.61 13.06,809.89C13.76,802.26 17.82,795.98 21.23,789.44C21.92,788.12 22.35,786.67 22.98,785.31C23.293,784.803 23.658,784.33 24.07,783.9C24.16,784.495 24.143,785.101 24.02,785.69C21.86,790.69 19.48,795.69 17.45,800.69C13,811.81 12,816 20,825.44C21.19,826.85 22.63,828.06 24,829.36L22.93,829.36Z" style="fill-rule:nonzero;"/>
    </g>
    <g transform="matrix(1,0,0,1,-10.15,-608.11)">
        <path d="M99.3,803.21C100.14,803.91 100.98,804.61 101.81,805.32C102.64,806.03 103.59,807.32 104.68,807.66C109.26,809.09 111.05,812.43 110.68,816.77C110.47,821.468 107.551,825.641 103.21,827.45C101.61,828.15 99.96,828.73 98.33,829.36L91.33,829.36C94.02,828.61 96.7,827.78 99.41,827.14C106.12,825.56 110.22,819.14 108.62,812.86C108.2,811.25 105.45,810.33 104.02,808.86C102.28,807.11 100.85,805.1 99.3,803.21Z" style="fill-rule:nonzero;"/>
    </g>
    <g transform="matrix(1,0,0,1,-10.15,-608.11)">
        <path d="M78.22,829.36C74.89,828.8 71.56,828.21 68.22,827.71C66.08,827.38 63.92,827.19 61.77,826.9C61.45,826.9 61.16,826.53 60.86,826.33C61.22,826.19 61.6,825.91 61.94,825.94C68.01,826.5 74.08,827.08 80.14,827.76C80.39,827.76 80.53,828.76 80.73,829.36L78.22,829.36Z" style="fill-rule:nonzero;"/>
    </g>
    <g transform="matrix(1,0,0,1,-10.15,-608.11)">
        <path d="M82.24,829.36C82.36,828.99 82.52,828.3 82.6,828.31C85.33,828.62 88.06,828.99 90.78,829.36L82.24,829.36Z" style="fill-rule:nonzero;"/>
    </g>
    <g transform="matrix(1,0,0,1,-10.15,-608.11)">
        <path d="M237,829.36L235.22,828.26C235.55,828.11 236.02,827.75 236.22,827.86C236.855,828.321 237.46,828.822 238.03,829.36L237,829.36Z" style="fill-rule:nonzero;"/>
    </g>
    <g transform="matrix(1,0,0,1,-10.15,-608.11)">
        <path d="M250.59,829.36L249.26,828.24C249.54,828.1 249.96,827.78 250.07,827.87C250.609,828.336 251.12,828.833 251.6,829.36L250.59,829.36Z" style="fill-rule:nonzero;"/>
    </g>
    <g transform="matrix(1,0,0,1,-10.15,-608.11)">
        <path d="M246.07,829.36L247.33,828.04L247.58,829.36L246.07,829.36Z" style="fill-rule:nonzero;"/>
    </g>
    <g transform="matrix(1,0,0,1,-10.15,-608.11)">
        <path d="M176.8,647C173.986,646.511 171.143,646.204 168.29,646.08C163.64,646.14 158.98,646.52 154.35,647.08C153.231,647.383 152.329,648.217 151.94,649.31C150.36,658.31 149.53,667.31 151.45,676.54C152.45,681.48 153.32,686.6 151.52,691.82C150.86,693.73 151.96,696.34 152.58,698.55C153.251,700.601 154.056,702.605 154.99,704.55C155.321,705.199 155.692,705.827 156.1,706.43C156.62,705.932 157.108,705.401 157.56,704.84C158.98,702.84 160.3,700.72 161.77,698.73C162.09,698.29 162.85,698.17 163.41,697.9C163.511,698.596 163.511,699.304 163.41,700C163.122,700.787 162.699,701.518 162.16,702.16C160,704.96 157.85,707.77 155.58,710.48C154.73,711.48 153.38,712.12 152.58,713.18C148.75,718.48 145.24,724.03 141.22,729.18C137.2,734.33 132.31,739.08 128.29,744.36C124.58,749.24 121.51,754.62 118.15,759.77C117.884,760.281 117.548,760.753 117.15,761.17C116.602,761.556 116.019,761.89 115.41,762.17C115.46,761.554 115.598,760.947 115.82,760.37C117.22,757.91 118.82,755.55 120.12,753.05C120.64,752.05 121.23,750.15 120.83,749.82C119.58,748.82 117.83,747.66 116.35,747.76C114.35,747.9 112.5,749.18 110.56,749.93C110.193,750.021 109.818,750.071 109.44,750.08C109.55,749.65 109.52,749.01 109.79,748.83C110.79,748.19 111.85,747.76 112.85,747.16C113.576,746.672 114.277,746.148 114.95,745.59C114.336,744.952 113.666,744.37 112.95,743.85C111.25,742.85 109.45,741.99 107.73,741.01C107.246,740.662 106.803,740.259 106.41,739.81C107.004,739.747 107.604,739.795 108.18,739.95C111.44,741.63 114.73,743.26 117.85,745.17C121.13,747.17 123.41,748.55 126.46,744C130.46,738 135.67,732.55 140.84,727.36C144.05,724.15 142.84,720.79 142.31,717.53C141.47,712.39 139.98,707.36 138.78,702.28C138.742,701.846 138.759,701.41 138.83,700.98C139.27,701.25 140,701.44 140.09,701.8C141.64,707.71 143.09,713.64 144.6,719.56L144.93,720.94C145.256,720.64 145.548,720.304 145.8,719.94C146.898,717.471 148.137,715.067 149.51,712.74C150.3,711.55 152,710.98 153.15,709.97C153.83,709.37 154.88,708.17 154.68,707.74C152.49,703.02 150.23,698.32 147.68,693.74C144.41,687.82 141.4,681.99 141.88,674.82C142.04,672.42 140.43,669.88 139.52,667.44C139.37,667.06 138.58,666.93 138.09,666.68C137.953,667.042 137.855,667.417 137.8,667.8C137.57,673.34 137.07,678.88 137.26,684.4C137.41,688.99 138.39,693.56 138.98,698.14C139.025,698.739 139.025,699.341 138.98,699.94C138.52,699.46 137.88,699.05 137.62,698.48C134.27,691.23 135.93,683.82 136.81,676.38C136.998,673.56 136.827,670.727 136.3,667.95C136.3,667.54 134.09,666.83 133.78,667.14C132.478,668.31 131.453,669.755 130.78,671.37C129.3,675.83 126.23,678 121.78,678.37C118.9,678.61 118.56,679.96 119.78,682.21C120.3,683.16 120.92,684.06 121.39,685.03C121.616,685.616 121.787,686.222 121.9,686.84C121.284,686.499 120.692,686.115 120.13,685.69C119.618,685.192 119.143,684.658 118.71,684.09C118.48,684.78 117.97,685.52 118.07,686.15C118.45,688.48 118.99,690.79 119.58,693.08C119.66,693.38 120.38,693.51 120.81,693.73C120.9,693.28 120.97,692.82 121.09,692.38C121.47,690.95 121.86,689.52 122.25,688.09C122.638,689.462 122.859,690.875 122.91,692.3C122.48,697.64 121.67,702.95 121.36,708.3C121.422,710.045 121.961,711.74 122.92,713.2C123.73,714.61 125.23,715.61 126.24,716.93C126.66,717.688 126.957,718.508 127.12,719.36C126.151,718.963 125.235,718.449 124.39,717.83C121.72,715.36 119.28,712.64 116.54,710.26C114.71,708.68 111.96,707.94 110.54,706.1C107.461,701.871 104.691,697.426 102.25,692.8C98.38,685.59 93.86,678.8 86.8,674.59C81,671 74.83,673.23 69.2,676C66.53,677.29 63.13,679.2 62.02,680.43C59.86,683.43 59.59,685.32 58.57,687.65C57.423,687.611 56.289,687.899 55.3,688.48C53.42,690.16 52.52,690.9 50.75,692.72C49.9,693.6 48.04,695.21 48.04,695.21C48.46,694.21 48.91,693.28 49.3,692.3C50.02,690.48 50.72,688.64 51.4,686.8C51.561,686.155 51.778,685.526 52.05,684.92C52.61,684.075 53.214,683.261 53.86,682.48C53.67,683.42 53.47,684.36 53.28,685.31C53.15,685.93 53.03,686.55 52.91,687.17C53.555,687.003 54.19,686.795 54.81,686.55C55.885,686.12 56.895,685.541 57.81,684.83C58.493,684.03 59.064,683.142 59.51,682.19C58.995,682.443 58.497,682.73 58.02,683.05C57.777,683.257 57.58,683.513 57.44,683.8L56.73,683.37L60.6,677.64C60.75,677.3 60.65,677.3 60.6,677.64C59,678.79 57.41,679.95 55.79,681.07C55.442,681.258 55.073,681.402 54.69,681.5C54.77,681.07 54.69,680.5 54.95,680.23C57.27,677.88 59.51,675.43 62.03,673.31C69,667.53 76,662.09 81.4,654.68C86.583,647.545 90.556,639.606 93.16,631.18C93.77,629.18 92.88,626.79 92.66,624.57C92.51,623.1 92.31,621.63 92.13,620.16C92.75,620.16 93.64,619.93 93.95,620.24C96.95,623.34 99.46,621.8 102.41,619.79C114.07,611.79 129.67,614.17 139.41,621.85C139.725,622.126 140.013,622.43 140.27,622.76C142.39,628.03 145.78,625.87 149.05,624.84C152.32,623.81 155.39,622.5 158.61,621.49C159.685,621.049 160.88,620.996 161.99,621.34C162.92,621.92 162.27,623.23 161.86,623.69C161.111,624.477 160.154,625.035 159.1,625.3C154.58,626.46 150.03,627.47 145.49,628.56C145.193,628.675 144.916,628.837 144.67,629.04C144.96,629.25 145.21,629.58 145.53,629.67C149.23,630.67 150.47,633.86 151.7,636.92C152.48,638.92 152.77,641.05 153.46,643.06C153.58,643.43 154.54,643.69 155.12,643.71C161.21,643.94 167.29,644.28 173.38,644.24C175.03,644.24 176.46,643.61 178,643.58C178.7,643.58 180.17,643.77 180.35,644.97C180.479,645.931 179.831,646.839 178.88,647.03C178.169,647.05 177.458,647.023 176.75,646.95C177.8,646.57 178.91,646.46 178.75,645.34C178.59,644.22 177.49,644.34 176.69,644.84C175.89,645.34 176.29,646 176.8,647ZM114.4,689.65L115.6,691.77L116.19,691.28L114.36,689.69C113.98,686.77 113.59,683.85 113.21,680.93L111.72,681.26C112.62,684 113.51,686.83 114.4,689.63L114.4,689.65ZM143.46,670.65C143.87,668.8 144.31,666.96 144.66,665.09C144.665,664.645 144.597,664.203 144.46,663.78C144.1,664.09 143.46,664.39 143.46,664.71C143.4,666.71 143.46,668.71 143.51,670.63L143.51,679.77L144.78,679.77C144.78,677.27 144.86,674.77 144.72,672.26C144.67,671.67 143.89,671.15 143.46,670.61L143.46,670.65ZM147.59,661.07C147.26,663.43 146.87,665.78 146.59,668.14C146.59,668.73 147.02,669.37 147.26,669.99C147.69,669.34 148.54,668.65 148.49,667.99C148.32,665.65 147.86,663.33 147.49,660.99L148.41,659.33L147.77,659.17L147.59,661.07ZM102.84,630.88C104.44,633.17 106.01,635.49 107.68,637.73C107.99,638.15 108.68,638.25 109.26,638.49C109.37,638.05 109.71,637.36 109.54,637.2C107.34,635.06 105.06,633 102.8,630.92C102.8,630.51 103.07,629.92 102.89,629.74C100.34,627.42 97.74,625.16 95.12,622.93C94.827,622.87 94.521,622.927 94.27,623.09C94.228,623.476 94.29,623.866 94.45,624.22C95.972,627.331 97.665,630.356 99.52,633.28C100.26,634.35 102.14,634.63 103.52,635.28L102.24,632.28C102.17,632.14 102.04,632.02 101.95,631.88L99.34,628.29L102.84,630.88ZM102.12,651.58C101.65,651.92 101.6,652.82 101.36,653.46L99.65,654.14C100.43,655.14 101.03,656.08 98.9,655.65L98.77,658.31C99.38,658.22 100.16,658.31 100.57,658C102.664,656.491 104.615,654.794 106.4,652.93C109.4,649.5 112.4,645.93 112.33,640.93C112.62,640.66 106.14,648.57 102.12,651.54L102.12,651.58ZM101.67,664.27C100.893,664.124 100.097,664.124 99.32,664.27C95.71,665.82 92.17,667.5 87.87,669.47C91.67,669.3 94.81,669.61 97.68,668.88C99.56,668.4 102.76,667.79 101.63,664.21C102.45,664.21 103.63,664.61 104.01,664.21C107.24,660.63 110.32,656.92 113.44,653.21L112.54,652.47C110.98,654.28 109.43,656.1 107.84,657.89C107.477,658.2 107.073,658.459 106.64,658.66C106.769,658.165 106.95,657.686 107.18,657.23C109.35,653.88 111.62,650.59 113.71,647.23C114.17,646.49 114.57,644.47 114.23,644.47C113.89,644.47 112.87,645.85 112.47,646.68C108.73,654.44 102.57,659.52 94.8,662.83C90.13,664.83 85.43,666.75 80.74,668.71L81.25,670.04C84.369,669.196 87.443,668.195 90.46,667.04C94.8,665.11 98.95,662.77 103.21,660.66C103.785,660.496 104.383,660.425 104.98,660.45C104.59,660.85 104.19,661.23 103.83,661.65C103.1,662.45 102.39,663.34 101.67,664.23L101.67,664.27ZM88.79,660.57C87.73,664.24 89.72,663.57 91.79,662.68C92.684,662.232 93.602,661.835 94.54,661.49C96.71,660.85 97.21,659.31 96.65,657.49C96.57,657.22 94.84,657.49 93.09,657.49C96.2,654.64 99.09,652.06 101.84,649.49C102.188,649.079 102.486,648.63 102.73,648.15C102.194,648.015 101.642,647.961 101.09,647.99C100.319,648.202 99.567,648.476 98.84,648.81C99.343,648.17 99.81,647.502 100.24,646.81C100.438,646.472 100.489,646.067 100.38,645.69C99.6,643.91 98.74,642.17 97.91,640.41C97.11,641.98 96.32,643.57 95.49,645.13C95.253,645.489 94.982,645.824 94.68,646.13L94.58,645.48L82.2,662C85.99,655.46 90,649 93.47,642.34C95.08,639.23 95.73,635.59 96.63,632.15C96.79,631.54 96.08,630.71 95.77,629.99C95.384,630.517 95.049,631.079 94.77,631.67C94.4,632.76 94.27,633.95 93.85,635.02C88.92,647.32 82.06,658.31 72.01,667.15C70.812,668.358 69.697,669.644 68.67,671C70.494,670.393 72.252,669.606 73.92,668.65C76.82,666.65 79.48,664.24 82.24,662C81.972,662.674 81.604,663.304 81.15,663.87C77.88,666.82 74.54,669.7 71.23,672.61L68.96,673.44L69.21,673.94L71.21,672.58C72.48,672.29 74.04,672.37 74.98,671.65C79.67,668.06 84.2,664.26 88.79,660.53L88.79,660.57ZM134,630.33C137.35,629.06 137.61,628.19 135,625.84C131,622.24 126.3,619.99 120.72,620.15C120.27,620.15 119.54,620.23 119.38,619.88C119.22,619.53 120.3,619.17 120.73,619.21C123.454,619.346 126.165,619.68 128.84,620.21C132.84,621.21 135.69,624.01 138.15,627.21C138.54,627.72 139.82,628.4 140.57,627.78C141.32,627.16 140.76,626.09 140.4,625.56C139.739,624.418 138.8,623.462 137.67,622.78C133.718,620.881 129.67,619.192 125.54,617.72C116.99,614.72 109.18,617.07 101.91,621.78C101.18,622.26 100.45,623.94 100.75,624.55C101.6,626.27 102.89,626.55 104.64,625.07C106.66,623.476 108.815,622.061 111.08,620.84C111.44,620.62 112.51,620.57 112.66,621.03C112.81,621.49 111.95,621.76 111.53,622.03C109.39,623.47 107.21,624.86 105.08,626.32C104.72,626.57 103.95,627.09 104.27,627.47C104.59,627.85 105.27,627.21 105.69,627.04C106.54,626.73 107.37,626.39 108.2,626.04C107.69,626.74 107.11,627.4 106.67,628.14C106.37,628.66 105.67,629.4 106.06,629.89C106.45,630.38 107.27,629.63 107.75,629.31C110.86,627.31 113.69,624.5 117.08,623.31C122.22,621.46 126.54,624.49 130.57,627.47C131.132,627.84 131.716,628.174 132.32,628.47C132.182,627.846 132.078,627.215 132.01,626.58C132.014,626.054 132.057,625.529 132.14,625.01C132.58,625.32 133.32,625.56 133.41,625.95C133.75,627.38 133.87,628.85 134.07,630.31C133.71,630.54 133.73,630.59 134,630.33ZM106.19,678.91C107.09,679.459 108.187,679.587 109.19,679.26C110.157,678.702 111.159,678.208 112.19,677.78C114.428,677.22 116.716,676.885 119.02,676.78C124.62,676.57 127.47,674.78 129.9,670.31C130.84,668.58 132.9,666.39 128.8,665.64C128.22,665.53 127.8,664.52 127.3,663.92C127.953,664.132 128.622,664.292 129.3,664.4C130.099,664.45 130.901,664.45 131.7,664.4L131.07,662.74L129.45,658.56C130.81,658.56 132.17,658.65 133.53,658.64C134.064,658.706 134.606,658.594 135.07,658.32C135.396,657.878 135.527,657.321 135.43,656.78C135.43,656.6 134.63,656.46 134.19,656.39C133.59,656.29 132.99,656.28 132.38,656.23C132.83,655.7 133.17,654.97 133.73,654.67C136.361,653.409 138.042,650.738 138.04,647.82C138.04,646.9 136.94,645.27 136.15,645.15C133.67,644.75 132.49,643.81 133.06,641.22C133.23,640.41 133.38,639.6 133.54,638.79C134,639.59 134.45,640.39 134.92,641.18C135.39,641.97 135.92,643.33 136.24,643.27C138.92,642.67 139.73,644.48 140.66,646.27C140.9,646.72 141.66,647.27 142,647.27C142.34,647.27 142.9,646.51 143.14,645.99C144.23,643.62 142.98,642.27 141,641.22C140.73,641.07 140.6,640.65 140.41,640.35C140.64,640.35 140.93,640.2 141.1,640.29C142.51,641.12 143.93,641.95 145.29,642.86C145.88,643.328 146.432,643.843 146.94,644.4C146.94,643.4 147.39,642.01 146.89,641.47C145.415,640.062 143.852,638.75 142.21,637.54C141.855,637.154 141.553,636.724 141.31,636.26C141.76,636.21 142.4,635.94 142.63,636.15C144.85,638 147,640 149,642C149.549,642.596 150.054,643.231 150.51,643.9C150.78,643.01 151.43,642.04 151.25,641.25C150.25,636.6 149.41,631.51 143.25,631.02C141.05,630.85 138.73,631.66 136.55,632.3C136.34,632.36 136.71,634.42 136.83,635.55C136.91,636.3 137.1,637.04 137.12,637.79C137.12,638.1 136.82,638.43 136.66,638.79C136.41,638.5 136.03,638.25 135.95,637.92C135.6,636.65 135.45,635.32 135,634.1C134.89,633.81 133.89,633.87 133.29,633.77C134.29,636.9 131.42,635.5 130.47,636.35C129.52,637.2 129.28,638.42 128.71,639.49C129.46,639.49 130.22,639.36 130.97,639.4C131.473,639.48 131.966,639.615 132.44,639.8C132.04,640.29 131.74,640.94 131.23,641.24C126.87,643.77 124.09,647.18 124.43,652.56C124.49,653.44 124.72,654.49 123.63,655.26C121.58,655.39 119.26,653.83 118.57,653.54C117.575,652.849 116.651,652.062 115.81,651.19C115.65,651.82 115.14,652.66 115.38,653.06C116.028,655.23 117.331,657.148 119.11,658.55C119.33,658.87 119.53,659.2 119.74,659.55C119.49,659.7 119.12,660.04 119.01,659.97C117.819,659.3 116.691,658.524 115.64,657.65C114.89,656.84 114.221,655.959 113.64,655.02C112.7,656.02 111.64,657.02 110.83,658.02C108.53,660.86 106.38,663.83 104,666.61C102.71,668.12 101,669.21 100.52,671.87C100.38,672.519 100.028,673.103 99.52,673.53C99.43,673.6 98.65,672.83 98.22,672.42C97.79,672.01 97.51,671.42 97.22,671.42C94.73,671.77 92.22,672.22 89.79,672.75C89.543,673.233 89.503,673.797 89.68,674.31C93.09,678.41 96.56,682.44 100.04,686.49C100.314,686.756 100.612,686.997 100.93,687.21C100.93,686.79 101.06,686.31 100.93,685.97C99.93,683.79 98.74,681.66 97.68,679.48C97.05,678.17 96.51,676.81 95.93,675.48C96.93,676.6 98.35,677.59 98.73,678.89C99.82,682.68 102.38,685.61 102.89,690.08C103.47,695.08 108.18,699.6 111.17,704.28C111.877,704.144 112.527,703.795 113.03,703.28C114.76,700.01 112.68,697.42 111.26,694.76C110.26,692.85 109.04,691.04 108.06,689.11C107.83,688.64 108.15,687.9 108.22,687.28C108.56,687.71 108.9,688.14 109.22,688.55C110.41,689.95 111.61,691.33 112.81,692.71L114.26,693.45L114.36,692.81L112.78,692.75C112.18,689.97 111.6,687.19 110.97,684.42C110.752,683.686 110.485,682.968 110.17,682.27C109.86,682.97 109.59,683.68 109.22,684.35C108.974,684.713 108.689,685.049 108.37,685.35C108.23,685.07 107.9,684.67 107.99,684.55C109.52,682.22 107.63,681.93 106.16,681.1C104.762,680.264 103.503,679.215 102.43,677.99C101.91,677.42 101.89,676.38 101.65,675.55C102.462,675.522 103.228,675.936 103.65,676.63C104.311,677.574 105.18,678.354 106.19,678.91ZM125.94,629.2C122.26,627.61 119.54,629.08 118.03,632.2C116.52,635.32 115.58,639.08 114.4,642.55C115.347,641.513 116.111,640.323 116.66,639.03C118.75,635.11 121.08,631.47 126.22,631.29C126.78,631.29 127.33,631.16 127.89,631.1C127.472,631.474 127.093,631.889 126.76,632.34C126.57,632.68 126.25,633.41 126.6,633.59C126.95,633.77 129.6,632.59 130.95,631.98C131.03,631.98 131.29,630.84 130.12,629.64C124.38,623.88 116.54,621.91 109.33,629.48C106.45,632.48 109.76,635.11 110.49,635.19C111.22,635.27 112.04,634.61 112.87,633.12C113.7,631.63 113.8,631.17 114.39,630.28C114.72,629.8 115.5,628.11 115.86,629.19C117.38,632.19 118.3,629.29 118.99,628.67C121.56,626.4 123.71,627.24 125.94,629.2ZM120.3,700.77C120.3,700.77 120.41,700.06 120.13,699.85C118.25,698.49 116.3,697.22 114.35,695.95C114.22,695.86 113.92,696.01 113.7,696.04C113.772,696.354 113.879,696.66 114.02,696.95C116.02,699.95 117.47,703.09 116.68,706.95C116.56,707.55 117.99,708.47 118.68,709.25C119.109,708.636 119.446,707.962 119.68,707.25C119.94,705.26 120.06,703.26 120.3,700.77ZM104.67,641L103.79,640.57L104.5,639.05C104.627,639.498 104.787,639.936 104.98,640.36C105.3,640.96 105.71,641.5 106.08,642.07C106.6,641.29 107.54,640.49 107.53,639.72C107.53,638.12 102.84,635.52 101.1,636.25C100.65,636.44 100.96,638.45 100.95,639.62C100.916,639.957 100.95,640.297 101.05,640.62C101.61,642.04 102.21,643.46 102.8,644.87L104.67,641ZM146.49,649.81L145.91,649.65C143.53,654.31 141.14,658.96 138.81,663.65C138.716,664.127 138.871,664.621 139.22,664.96C139.81,665.18 141.02,665.23 141.1,665.03C143,659.93 144.72,654.84 146.49,649.76L146.49,649.81ZM149.31,676.73C148.77,674.9 148.26,673.2 147.75,671.49C147.47,673.03 147.19,674.57 146.9,676.11C146.883,676.275 146.856,676.438 146.82,676.6C146.26,678.85 145.63,681.09 145.16,683.36C145.144,684.072 145.249,684.783 145.47,685.46C145.98,685.03 146.76,684.69 146.95,684.15C147.82,681.69 148.52,679.21 149.31,676.68L149.31,676.73ZM138.49,657L139.07,657.29C140.35,655.17 141.66,653.06 142.87,650.9C143.124,650.292 143.295,649.653 143.38,649C142.6,649.32 141.38,649.44 141.11,650C140.08,652.27 139.34,654.67 138.49,657ZM115,682.31L116.12,684.46C116.58,683.109 116.964,681.734 117.27,680.34C117.35,679.89 116.73,679.34 116.43,678.81C115.89,680 115.41,681.2 115,682.31ZM147,650.82L147.66,652.56C147.995,651.578 148.269,650.576 148.48,649.56C148.56,649.12 148.2,648.61 148.04,648.14C147.6,649 147.26,649.91 146.91,650.82L147,650.82ZM122,634.59L121.57,634.2C120.82,635.32 120.06,636.43 119.32,637.56C119.32,637.56 119.5,637.76 119.6,637.86L122,634.59ZM147.24,689.45C148.02,688.06 148.48,687.32 148.84,686.53C148.93,686.33 148.72,685.98 148.65,685.7C148.142,686.244 147.681,686.829 147.27,687.45C147,687.77 147.1,688.28 147.1,689.45L147.24,689.45ZM138.52,660C137.72,660.4 136.96,660.85 136.19,661.29C136.325,661.543 136.483,661.784 136.66,662.01C137.41,661.473 138.043,660.789 138.52,660ZM158.86,624.12C159.26,624.32 159.6,624.38 160.26,623.92C160.92,623.46 161.11,623.4 161.07,622.77C161.03,622.14 160.17,622.11 159.39,622.25C158.81,622.34 158.27,623.03 158.39,623.46C158.404,623.752 158.588,624.011 158.86,624.12ZM106.11,645.57L105.69,644.86C105.03,645.38 104.37,645.86 103.69,646.44C103.69,646.44 103.81,646.69 103.87,646.83L106.11,645.57ZM127.11,640.42C126.37,641.42 125.87,642 125.44,642.66C125.38,642.76 125.63,643.07 125.74,643.28C126.3,642.71 126.88,642.16 127.4,641.55C127.48,641.44 127.28,641.09 127.1,640.42L127.11,640.42ZM130.75,659.8C130.889,660.164 131.188,660.445 131.56,660.56C131.78,660.56 132.31,660.14 132.3,659.92C132.29,659.7 130.68,659.64 130.74,659.8L130.75,659.8ZM113.92,636.16L113.4,635.76L111.9,638L112.22,638.22L113.92,636.16ZM96.08,638.8L96.44,639.11L97.65,636.72L97.08,636.46L96.08,638.8ZM123.61,638.11C123.91,637.8 124.16,637.65 124.2,637.46C124.24,637.27 124.03,637.09 123.93,636.9C123.77,637.07 123.55,637.22 123.47,637.42C123.39,637.62 123.53,637.77 123.61,638.11ZM118,648C118.151,647.597 118.268,647.182 118.35,646.76C118.35,646.59 118.2,646.41 118.11,646.23C117.941,646.497 117.804,646.782 117.7,647.08C117.63,647.26 117.78,647.47 118,648ZM114.24,705.12C114.07,705.46 113.88,705.67 113.89,705.87C113.9,706.07 114.19,706.1 114.36,706.22C114.47,706.02 114.67,705.83 114.68,705.63C114.69,705.43 114.41,705.35 114.21,705.13L114.24,705.12ZM147.08,655.2L146.74,654.74C146.581,654.916 146.449,655.115 146.35,655.33C146.335,655.562 146.358,655.796 146.42,656.02L147.08,655.2ZM110.74,640.4L110.56,639.93C110.367,640.033 110.186,640.157 110.02,640.3C109.854,640.443 110.12,640.55 110.17,640.68L110.74,640.4ZM108.74,641.93C108.55,642.107 108.376,642.302 108.22,642.51C108.22,642.57 108.31,642.74 108.36,642.86C108.536,642.706 108.7,642.539 108.85,642.36C108.92,642.29 108.83,642.13 108.77,641.93L108.74,641.93ZM114.99,647.07C114.859,647.256 114.745,647.453 114.65,647.66C114.65,647.72 114.82,647.85 114.92,647.95C115.055,647.789 115.172,647.615 115.27,647.43C115.32,647.37 115.15,647.23 115,647.07L114.99,647.07ZM149.41,683.77L149.25,683.47C149.153,683.57 149.078,683.689 149.03,683.82C149.03,683.92 149.14,684.03 149.19,684.13C149.29,684 149.37,683.9 149.44,683.77L149.41,683.77ZM117.78,641.5L117.64,641.09C117.53,641.19 117.36,641.26 117.32,641.38C117.28,641.5 117.39,641.63 117.43,641.76L117.78,641.5ZM148.42,657.77C148.54,657.67 148.7,657.6 148.75,657.49C148.8,657.38 148.7,657.25 148.67,657.13C148.56,657.21 148.4,657.27 148.35,657.37C148.3,657.47 148.39,657.63 148.42,657.77ZM117.55,696C117.55,696.07 117.47,696.15 117.49,696.18C117.51,696.21 117.61,696.28 117.67,696.33C117.73,696.38 117.76,696.18 117.73,696.14C117.7,696.1 117.62,696 117.55,696ZM119.19,695.35L119.37,695.23C119.292,695.11 119.205,694.996 119.11,694.89L118.94,695C119,695.11 119.1,695.23 119.19,695.34L119.19,695.35Z" style="fill-rule:nonzero;"/>
    </g>
    <g transform="matrix(1,0,0,1,-10.15,-608.11)">
        <path d="M40.55,714.28C42.76,710.52 44.97,706.75 47.21,703.01C47.43,702.66 47.91,702.48 48.27,702.21C48.34,702.73 48.62,703.36 48.42,703.74C46.58,707.37 44.42,710.86 42.82,714.58C41.681,717.311 40.871,720.167 40.41,723.09C39.82,726.53 39.82,730.09 39.32,733.54C38.82,736.99 38.04,740.54 38.01,744.25C38.77,741.62 39.65,739.02 40.27,736.36C40.97,733.36 41.4,730.36 42.07,727.36C42.17,726.87 42.9,726.52 43.34,726.11C43.497,726.642 43.574,727.195 43.57,727.75C43.08,730.38 42.02,733 42.12,735.59C42.22,738.18 43.49,740.59 44.25,743.1C46.858,741.462 49.381,739.693 51.81,737.8C52.95,736.8 53.45,735.12 54.25,733.8C54.52,733.33 54.83,732.89 55.12,732.43C55.517,732.81 55.855,733.248 56.12,733.73C57.46,737.22 58.73,740.73 60,744.25C60.09,744.49 60,744.81 59.94,745.1C59.63,744.99 59.17,744.96 59.05,744.75C57.97,742.81 56.93,740.857 55.93,738.89C55.42,737.89 55.01,736.89 54.55,735.89C54.131,737.186 53.883,738.53 53.81,739.89C54.094,741.434 54.491,742.955 55,744.44C55.1,744.9 54.79,745.44 54.67,745.96C54.289,745.598 53.954,745.192 53.67,744.75C53.41,744.24 53.38,743.61 53.16,743.08C52.78,742.19 52.32,741.33 51.9,740.45C50.83,741.65 48.75,742.93 48.85,744.02C49.44,751.07 50.45,758.09 51.54,765.08C51.62,765.54 53.54,765.71 54.54,766.02C54.04,766.94 53.47,767.83 53.04,768.78C52.35,770.31 51.68,771.6 49.52,770.92C49.13,770.79 48.29,772.19 47.62,772.84C46.62,773.84 45.62,774.7 44.62,775.62C46.12,773.62 47.62,771.62 49.08,769.62C49.7,768.72 50.59,767.57 50.46,766.62C49.46,760.01 48.22,753.43 47.03,746.84C46.839,746.107 46.595,745.388 46.3,744.69C45.66,745.27 44.64,745.69 44.43,746.45C41.96,755 38.19,763.31 39.43,772.57C39.49,773.03 39.11,773.57 38.93,774.03C38.653,773.56 38.416,773.069 38.22,772.56C36.49,766.27 38.91,760.47 40.46,754.56C41.26,751.51 42.58,748.56 43.06,745.47C43.26,744.14 41.9,742.58 41.24,741.13C40.93,741.41 40.47,741.65 40.32,742C38.93,745.46 37.05,748.83 36.32,752.43C34.64,760.9 33.5,769.43 32.18,778.02C32.155,778.664 32.209,779.309 32.34,779.94C32.43,780.76 32.53,781.58 32.62,782.41L31,780.6C30.28,779.93 28,779.68 30.34,778.18C30.16,777.94 29.87,777.71 29.83,777.44C29.712,776.582 29.658,775.716 29.67,774.85C29.722,774.238 29.829,773.633 29.99,773.04C29.428,773.077 28.879,773.22 28.37,773.46C26.54,774.86 24,775.82 25,779C25.08,779.25 24.69,779.66 24.52,780C24.33,779.88 24,779.79 23.98,779.64C22.98,774.64 20.09,778.4 19.26,779.12C17.37,780.78 17.02,779.85 16.33,778.33C12.06,768.9 14,759.92 17.91,751C19.27,747.9 19.91,744.48 20.91,741.22C21.17,740.641 21.506,740.099 21.91,739.61C22.117,740.285 22.258,740.978 22.33,741.68C22.33,742.13 21.85,742.56 21.77,743.03C21.715,743.599 21.715,744.171 21.77,744.74C22.26,744.42 23,744.21 23.21,743.74C24.73,740.54 25.96,737.19 27.64,734.07C30.72,728.36 34.02,722.77 37.29,717.16C37.63,716.58 38.44,716.28 39.03,715.85C36.21,721.1 33.6,726.48 30.52,731.57C27.44,736.66 27,742.7 30.16,746C31.96,747.86 33.78,747.91 34.87,745.37C35.724,743.312 36.361,741.17 36.77,738.98C38.27,731.24 39.66,723.48 41.05,715.71C41.12,715.28 40.7,714.77 40.51,714.3L40.55,714.28ZM20.66,753.18L20,752.9C20.37,751.73 20.81,750.58 21.09,749.39C21.284,748.398 21.424,747.397 21.51,746.39C21.09,747.34 20.64,748.27 20.27,749.23C19.78,750.48 19.34,751.74 18.93,753.01C18.787,753.458 18.742,753.933 18.8,754.4C18.96,755.54 19.49,756.71 19.36,757.82C18.71,763.58 17.86,769.32 17.19,775.09C17.12,775.75 17.77,776.5 18.08,777.22C20.36,775.61 24.68,773.84 24.57,772.42C23.99,764.95 25.92,757.99 27.92,751.11C28.87,747.84 28,745.55 26.79,742.96C26.582,742.624 26.337,742.312 26.06,742.03C25.773,742.392 25.515,742.776 25.29,743.18C23.763,746.5 22.22,749.833 20.66,753.18ZM25.71,767.23L26.16,767.33C26.1,767.912 26.1,768.498 26.16,769.08C26.362,769.916 26.609,770.74 26.9,771.55C27.573,770.994 28.18,770.364 28.71,769.67C29.987,766.912 30.518,763.867 30.25,760.84C30.206,760.34 30.282,759.836 30.47,759.37C31.32,756.6 32.32,753.86 32.98,751.05C33.13,750.42 32.26,749.42 31.63,748.84C31.44,748.66 30.04,749.21 29.93,749.61C28.47,755.47 27.1,761.36 25.71,767.23ZM17.86,758.23L17.53,757.58C17.39,757.73 17.2,757.85 17.12,758.03C17.04,758.21 17.21,758.41 17.25,758.41C17.459,758.394 17.665,758.347 17.86,758.27L17.86,758.23ZM36.79,747.23L36.6,746.77C36.458,746.951 36.334,747.145 36.23,747.35C36.23,747.45 36.32,747.62 36.37,747.75L36.79,747.23ZM17,761.34L16.72,761.04C16.634,761.145 16.56,761.259 16.5,761.38C16.44,761.501 16.6,761.56 16.62,761.55C16.753,761.492 16.88,761.421 17,761.34Z" style="fill-rule:nonzero;"/>
    </g>
    <g transform="matrix(1,0,0,1,-10.15,-608.11)">
        <path d="M81.77,822.74C81.87,826.86 81.05,827.32 76.85,825.46C76.134,825.248 75.479,824.867 74.94,824.35C70.66,818.44 65.11,820.02 59.45,821.48C57.172,821.909 54.866,822.177 52.55,822.28L52.55,822.34C53.45,821.99 54.36,821.67 55.24,821.28C55.62,821.062 55.984,820.818 56.33,820.55C55.88,820.44 55.33,820.13 54.99,820.26C53.3,820.89 51.66,821.63 49.99,822.34C49.893,821.819 49.842,821.29 49.84,820.76C54.5,819.48 59.18,818.28 63.84,817.13C64.09,817.07 64.47,817.65 64.84,817.87C65.235,818.105 65.642,818.319 66.06,818.51C66.14,818.17 66.06,817.72 66.31,817.51C66.684,817.192 67.115,816.947 67.58,816.79C69.7,815.98 72,815.48 73.91,814.33C78.543,811.578 84.012,810.573 89.32,811.5C91.5,811.81 93.83,810.99 96.09,810.68L97.55,810.48C97.445,810.99 97.266,811.482 97.02,811.94C96.24,812.94 95.36,813.94 94.52,814.86C95.718,815.121 96.944,815.232 98.17,815.19C99.54,814.865 100.866,814.378 102.12,813.74C102.609,813.463 103.062,813.127 103.47,812.74C103.47,813.24 103.47,813.74 103.55,814.23C104.06,818.23 101.82,820.16 98.55,822.16C92.81,825.69 87.41,826.58 81.62,822.76C82.325,822.601 83.047,822.524 83.77,822.53C86.68,822.92 89.57,823.44 92.48,823.85C92.81,823.85 93.19,823.52 93.55,823.35C93.26,823.17 92.96,823 92.67,822.81L91.74,822.16C92.15,822 92.55,821.82 92.96,821.68C95.65,820.78 98.37,819.96 100.96,818.92C101.42,818.73 101.5,817.59 101.75,816.92C101.227,817.135 100.693,817.322 100.15,817.48C98,817.99 95.84,818.48 93.67,818.92C93.49,818.92 92.85,818.03 92.96,817.8C93.2,817.29 93.78,816.93 94.22,816.51C93.47,816.51 92.72,816.45 91.98,816.39C90.89,816.29 89.81,816.21 88.74,816.04C88.295,815.915 87.868,815.734 87.47,815.5C87.845,815.232 88.252,815.011 88.68,814.84C89.79,814.53 90.93,814.31 92.06,814.05L91.89,813.13C85.96,814.32 79.53,811.96 74.78,815.29C78,816.5 81.62,817.84 85.21,819.29C85.62,819.45 85.86,820.03 86.21,820.42C85.804,820.419 85.399,820.378 85,820.3C82.28,819.59 79.61,818.55 76.84,818.21C75.24,818.02 73.5,818.94 71.84,819.36C72.77,820.36 73.67,821.3 74.64,822.22C75.198,822.725 75.804,823.174 76.45,823.56C78.4,824.81 80.41,825.9 81.77,822.74ZM59.28,819.32L58.4,820.02C58.61,820.09 58.86,820.26 59.03,820.21C59.354,820.07 59.663,819.896 59.95,819.69L59.28,819.32ZM62.94,818.55L62.53,819.12C62.689,819.139 62.851,819.139 63.01,819.12C63.161,819.079 63.305,819.019 63.44,818.94L62.94,818.55Z" style="fill-rule:nonzero;"/>
    </g>
    <g transform="matrix(1,0,0,1,-10.15,-608.11)">
        <path d="M236.55,688.11C233.28,687.58 229.88,687.43 226.77,686.41C223.1,685.21 220.25,686.64 217.37,688.28C216.87,688.57 216.68,690.06 216.88,690.84C218.88,698.45 220.88,706.05 223.16,713.59C223.935,716.467 225.146,719.209 226.75,721.72C228.67,724.52 224.61,728.5 224.5,728.22C223.953,726.779 223.505,725.302 223.16,723.8C221.9,718.533 220.673,713.257 219.48,707.97C219.23,706.85 215.56,692.1 213.48,685.97C212.88,684.19 211.24,682.78 210.14,681.16C209.819,680.599 209.551,680.01 209.34,679.4C209.96,679.64 210.79,679.71 211.17,680.16C212.51,681.73 213.58,683.56 215.01,685.04C215.76,685.701 216.788,685.955 217.76,685.72C221.76,683.5 233.15,684.56 236.38,687.65C236.48,687.75 236.46,687.97 236.49,688.13L236.55,688.11Z" style="fill-rule:nonzero;"/>
    </g>
    <g transform="matrix(1,0,0,1,-10.15,-608.11)">
        <path d="M77.83,711.49C75.83,711.14 73.83,710.83 71.83,710.43C71.289,710.252 70.769,710.013 70.28,709.72C70.788,709.495 71.322,709.334 71.87,709.24C72.913,709.289 73.957,709.209 74.98,709C73.68,708.53 72.36,708.09 71.08,707.55C70.8,707.44 70.66,706.98 70.46,706.68C70.77,706.68 71.13,706.47 71.39,706.56C73.39,707.3 75.64,707.78 77.39,708.95C79.312,710.387 81.054,712.048 82.58,713.9C84.22,715.7 84.09,715.82 81.9,716.37C81.29,716.52 80.9,717.21 80.25,717.47C78.49,718.23 76.66,718.82 74.93,719.64C74.048,720.084 73.26,720.696 72.61,721.44C72.44,721.64 72.93,722.44 73.11,722.95C73.8,722.68 74.5,722.47 75.11,722.14C77.93,720.76 80.73,719.33 83.57,717.98C83.95,717.79 84.86,717.81 84.91,717.98C85.91,720.79 86.83,723.63 87.72,726.49C87.72,726.67 87.45,726.97 87.3,727.21C87.059,727.006 86.85,726.766 86.68,726.5C86.11,725.2 85.68,723.82 85.01,722.6C84.48,721.6 83.74,720.32 82.89,720.14C82.613,720.047 82.322,719.999 82.03,719.999C80.567,719.999 79.357,721.188 79.33,722.65C79.33,723.02 78.2,723.3 77.56,723.53C76.75,723.83 75.37,723.82 75.17,724.32C74.25,726.59 74.17,725.4 72.64,724.53C69.03,722.42 70.21,720.87 72.42,718.98C73.024,718.533 73.701,718.195 74.42,717.98C76.22,717.35 78.05,716.8 79.87,716.22C79.69,715.66 79.63,714.72 79.31,714.62C77.13,713.94 74.89,713.47 72.69,712.88C72.194,712.685 71.722,712.437 71.28,712.14C71.712,711.86 72.194,711.667 72.7,711.57C74.36,711.62 76.01,711.8 77.7,711.93L77.83,711.49Z" style="fill-rule:nonzero;"/>
    </g>
    <g transform="matrix(1,0,0,1,-10.15,-608.11)">
        <path d="M58.57,687.6C57.91,693.77 57.12,699.94 56.63,706.13C56.08,713 55.82,720 55.4,726.9C55.306,727.748 55.163,728.589 54.97,729.42C54.63,728.6 53.97,727.76 53.97,726.96C54.55,718.17 55.25,709.39 55.88,700.6C55.96,699.46 55.88,698.3 55.88,697.15C55.092,698.046 54.389,699.014 53.78,700.04C51.24,705.36 48.78,710.72 46.3,716.04C46.16,716.35 45.81,716.57 45.55,716.83C45.49,716.47 45.27,716.04 45.39,715.78C48.77,708.78 52.21,701.78 55.57,694.78C56.25,693.36 56.67,691.78 57.21,690.33L54.28,693.25L51.68,695.85C52.162,694.519 52.814,693.255 53.62,692.09C55.198,690.491 56.868,688.985 58.62,687.58L58.57,687.6Z" style="fill-rule:nonzero;"/>
    </g>
    <g transform="matrix(1,0,0,1,-10.15,-608.11)">
        <path d="M41.75,705.78C39.11,710.01 36.44,714.21 33.63,718.32C31.54,721.39 29.06,724.19 27.06,727.32C25.552,729.91 24.187,732.581 22.97,735.32C22.58,736.11 22.32,736.95 21.97,737.77C21.704,736.983 21.563,736.16 21.55,735.33C22.26,730.4 23.69,725.93 28.31,723.01C29.84,722.01 30.87,720.18 31.9,718.57C35.19,713.39 38.6,708.26 41.5,702.86C42.63,700.74 47.03,695.31 46.92,696.03C47.72,695.78 43.28,703.32 41.75,705.78Z" style="fill-rule:nonzero;"/>
    </g>
    <g transform="matrix(1,0,0,1,-10.15,-608.11)">
        <path d="M195.56,675.13C199.25,675.47 202.96,675.76 206.64,676.2C207.23,676.27 207.73,677.03 208.28,677.47C207.7,677.587 207.111,677.66 206.52,677.69C201.74,677.6 196.95,677.32 192.17,677.4C184.1,677.54 179.29,683.33 174.17,688.32C171.29,691.1 168.66,694.13 165.89,697.01C165.62,697.29 165.12,697.34 164.72,697.5C164.72,697.11 164.6,696.59 164.79,696.34C166.24,694.49 166.79,692.25 169.58,691.03C172.37,689.81 174.1,686.3 176.53,684.03C181.83,679 187.71,675 195.56,675.13Z" style="fill-rule:nonzero;"/>
    </g>
    <g transform="matrix(1,0,0,1,-10.15,-608.11)">
        <path d="M65.65,752.45C64.81,753.315 64.057,754.259 63.4,755.27C62.4,757.13 61.66,759.1 60.81,761.03C59.706,759.336 58.688,757.587 57.76,755.79C56.67,753.45 55.84,750.99 54.96,748.56C54.84,748.22 55.06,747.75 55.12,747.34C55.39,747.609 55.625,747.912 55.82,748.24C57.09,751.13 58.29,754.04 59.6,756.91C59.84,757.45 60.45,757.83 60.88,758.28C61.22,757.841 61.522,757.372 61.78,756.88C63.1,753.88 63.25,751.04 61.12,748.29C60.808,747.664 60.611,746.986 60.54,746.29C61.116,746.587 61.645,746.968 62.11,747.42C63.33,749.08 64.45,750.81 65.61,752.51L65.65,752.45Z" style="fill-rule:nonzero;"/>
    </g>
    <g transform="matrix(1,0,0,1,-10.15,-608.11)">
        <path d="M63.39,779.3C63.282,779.603 63.144,779.894 62.98,780.17C62.747,780.17 62.519,780.097 62.33,779.96C59.84,777.96 57.33,775.96 54.88,773.88C54.466,773.447 54.104,772.967 53.8,772.45C54.342,772.579 54.874,772.75 55.39,772.96C56.93,773.68 58.45,774.46 59.98,775.22C59.11,773.69 58.22,772.22 57.39,770.63C57.011,769.888 56.703,769.111 56.47,768.31C56.4,768.09 56.68,767.75 56.8,767.47C57.08,767.6 57.49,767.65 57.61,767.87C59.437,771.203 61.24,774.537 63.02,777.87C63.189,778.334 63.313,778.813 63.39,779.3Z" style="fill-rule:nonzero;"/>
    </g>
    <g transform="matrix(1,0,0,1,-10.15,-608.11)">
        <path d="M92,728.45C92.417,728.867 92.801,729.315 93.15,729.79C95.72,733.98 99.66,736.37 104.02,738.25C104.39,738.41 104.64,738.83 104.94,739.14C104.621,739.269 104.283,739.347 103.94,739.37C98.6,738.68 95.47,734.67 91.94,731.27C91.44,730.79 91.5,729.72 91.37,728.91C91.38,728.81 91.75,728.65 92,728.45Z" style="fill-rule:nonzero;"/>
    </g>
    <g transform="matrix(1,0,0,1,-10.15,-608.11)">
        <path d="M41.71,823.16C38.91,823.02 36.09,823.02 33.32,822.65C32.56,822.55 31.93,821.37 31.24,820.65C32.02,820.913 32.824,821.101 33.64,821.21C37.1,821.35 40.57,821.37 44.04,821.5C45.047,821.593 46.049,821.74 47.04,821.94C46.103,822.286 45.148,822.583 44.18,822.83C43.355,822.947 42.523,823.004 41.69,823L41.71,823.16Z" style="fill-rule:nonzero;"/>
    </g>
    <g transform="matrix(1,0,0,1,-10.15,-608.11)">
        <path d="M36,780.09C35.276,781.693 34.43,783.237 33.47,784.71C32.77,785.176 31.876,785.248 31.11,784.9C30.401,783.948 29.909,782.853 29.67,781.69C29.62,781.48 30.55,780.99 31.03,780.63C31.38,781.63 31.74,782.7 32.09,783.74C32.85,782.94 33.57,782.09 34.38,781.34C34.916,780.904 35.484,780.509 36.08,780.16L36,780.09Z" style="fill-rule:nonzero;"/>
    </g>
    <g transform="matrix(1,0,0,1,-10.15,-608.11)">
        <path d="M49.7,781.79C48.77,782.21 48.08,782.47 47.45,782.79C45.63,783.79 43.83,784.84 42,785.79C41.645,785.934 41.271,786.025 40.89,786.06C40.89,785.76 40.83,785.27 40.97,785.2C43.563,783.773 46.177,782.387 48.81,781.04C48.92,781 49.24,781.42 49.7,781.79Z" style="fill-rule:nonzero;"/>
    </g>
    <g transform="matrix(1,0,0,1,-10.15,-608.11)">
        <path d="M39.68,775L41.9,777.48L39.73,778.42C39.48,777.95 39.305,777.444 39.21,776.92C39.285,776.263 39.443,775.618 39.68,775Z" style="fill-rule:nonzero;"/>
    </g>
    <g transform="matrix(1,0,0,1,-10.15,-608.11)">
        <path d="M56.33,783.57C55.944,783.557 55.559,783.513 55.18,783.44C53.84,783.04 52.52,782.61 51.18,782.19C51.29,782.01 51.42,781.65 51.49,781.66C53.17,781.96 54.84,782.31 56.49,782.66L56.33,783.57Z" style="fill-rule:nonzero;"/>
    </g>
    <g transform="matrix(1,0,0,1,-10.15,-608.11)">
        <path d="M36.18,789.7L33.57,791.88C33.4,791.58 33.02,791.1 33.09,791.01C33.727,790.291 34.419,789.622 35.16,789.01C35.23,789 35.67,789.35 36.18,789.7Z" style="fill-rule:nonzero;"/>
    </g>
    <g transform="matrix(1,0,0,1,-10.15,-608.11)">
        <path d="M51.69,697.18L49,700.93C48.84,700.77 48.52,700.52 48.54,700.47C49.26,699.28 50,698.1 50.77,696.94C50.84,696.88 51.24,697.06 51.69,697.18Z" style="fill-rule:nonzero;"/>
    </g>
    <g transform="matrix(1,0,0,1,-10.15,-608.11)">
        <path d="M65.61,752.49L69.27,755.23L68.55,755.95C67.55,754.78 66.61,753.62 65.65,752.45L65.61,752.49Z" style="fill-rule:nonzero;"/>
    </g>
    <g transform="matrix(1,0,0,1,-10.15,-608.11)">
        <path d="M55.66,825L58,826.14C57.478,826.298 56.935,826.375 56.39,826.37C55.639,826.206 54.903,825.978 54.19,825.69L55.66,825Z" style="fill-rule:nonzero;"/>
    </g>
    <g transform="matrix(1,0,0,1,-10.15,-608.11)">
        <path d="M43.83,724.62C43.45,724.13 43.09,723.83 43.15,723.69C43.363,723.204 43.621,722.739 43.92,722.3C44.09,722.55 44.41,722.82 44.39,723.06C44.261,723.599 44.073,724.122 43.83,724.62Z" style="fill-rule:nonzero;"/>
    </g>
    <g transform="matrix(1,0,0,1,-10.15,-608.11)">
        <path d="M65.71,779.59C66.28,780.74 66.55,781.11 66.48,781.2C66.238,781.512 65.917,781.754 65.55,781.9C65.42,781.95 64.93,781.54 64.96,781.41C65.161,780.784 65.412,780.176 65.71,779.59Z" style="fill-rule:nonzero;"/>
    </g>
    <g transform="matrix(1,0,0,1,-10.15,-608.11)">
        <path d="M57.14,764.55L54.53,766L57.14,764.56L57.14,764.55Z" style="fill-rule:nonzero;"/>
    </g>
    <g transform="matrix(1,0,0,1,-10.15,-608.11)">
        <path d="M62.35,801.09L61.83,800.65C62.06,800.505 62.309,800.394 62.57,800.32C62.68,800.32 62.83,800.58 62.96,800.73L62.35,801.09Z" style="fill-rule:nonzero;"/>
    </g>
    <g transform="matrix(1,0,0,1,-10.15,-608.11)">
        <path d="M36,780.13C36.45,779.64 36.91,779.13 37.37,778.67L37.66,778.99L35.96,780.09L36,780.13Z" style="fill-rule:nonzero;"/>
    </g>
    <g transform="matrix(1,0,0,1,-10.15,-608.11)">
        <path d="M25.06,782.55C24.66,782.74 24.35,783.01 24.2,782.94C23.942,782.787 23.765,782.527 23.72,782.23C23.72,782.09 24.15,781.73 24.3,781.78C24.45,781.83 24.71,782.17 25.06,782.55Z" style="fill-rule:nonzero;"/>
    </g>
    <g transform="matrix(1,0,0,1,-10.15,-608.11)">
        <path d="M228.17,700.94C227.976,700.631 227.831,700.293 227.74,699.94C227.74,699.81 228.1,699.52 228.2,699.56C228.45,699.65 228.78,699.88 228.81,700.08C228.84,700.28 228.5,700.54 228.17,700.94Z" style="fill-rule:nonzero;"/>
    </g>
    <g transform="matrix(1,0,0,1,-10.15,-608.11)">
        <path d="M38.69,787.42C38.486,787.612 38.254,787.771 38,787.89C37.93,787.89 37.63,787.54 37.66,787.49C37.776,787.279 37.959,787.114 38.18,787.02C38.28,787 38.47,787.24 38.69,787.42Z" style="fill-rule:nonzero;"/>
    </g>
    <g transform="matrix(1,0,0,1,-10.15,-608.11)">
        <path d="M30,795.23L30.42,794.23L30.77,794.45L29.96,795.24L30,795.23Z" style="fill-rule:nonzero;"/>
    </g>
    <g transform="matrix(1,0,0,1,-10.15,-608.11)">
        <path d="M44.56,775.58L43.5,776.82C43.452,776.76 43.409,776.696 43.37,776.63C43.77,776.28 44.18,775.95 44.59,775.63L44.56,775.58Z" style="fill-rule:nonzero;"/>
    </g>
    <g transform="matrix(1,0,0,1,-10.15,-608.11)">
        <path d="M227,687.23C227.2,687.48 227.44,687.65 227.44,687.82C227.44,687.99 227.14,688.22 227.01,688.2C226.797,688.136 226.629,687.971 226.56,687.76C226.5,687.64 226.77,687.46 227,687.23Z" style="fill-rule:nonzero;"/>
    </g>
    <g transform="matrix(1,0,0,1,-10.15,-608.11)">
        <path d="M39,715.81L40.52,714.28L39,715.77L39,715.81Z" style="fill-rule:nonzero;"/>
    </g>
    <g transform="matrix(1,0,0,1,-10.15,-608.11)">
        <path d="M235.33,691.32C235.53,691.1 235.65,690.84 235.81,690.81C235.97,690.78 236.2,690.95 236.39,691.04C236.259,691.271 236.101,691.486 235.92,691.68C235.739,691.874 235.58,691.48 235.33,691.32Z" style="fill-rule:nonzero;"/>
    </g>
    <g transform="matrix(1,0,0,1,-10.15,-608.11)">
        <path d="M239.2,691.84C238.2,692.28 238,692.48 237.84,692.44C237.68,692.4 237.58,692.1 237.45,691.92C237.629,691.786 237.828,691.681 238.04,691.61C238.433,691.647 238.822,691.724 239.2,691.84Z" style="fill-rule:nonzero;"/>
    </g>
    <g transform="matrix(1,0,0,1,-10.15,-608.11)">
        <path d="M316.4,731.38L317.92,732.38L316.42,731.38L316.4,731.38Z" style="fill-rule:nonzero;"/>
    </g>
    <g transform="matrix(1,0,0,1,-10.15,-608.11)">
        <path d="M59.88,800.5C59.827,800.387 59.783,800.27 59.75,800.15C59.717,800.03 59.89,800.02 59.92,800.04C60.025,800.105 60.122,800.183 60.21,800.27L59.88,800.5Z" style="fill-rule:nonzero;"/>
    </g>
    <g transform="matrix(1,0,0,1,-10.15,-608.11)">
        <path d="M83.69,773L83.76,773.88L83.35,773.76L83.74,773.04L83.69,773Z" style="fill-rule:nonzero;"/>
    </g>
    <g transform="matrix(1,0,0,1,-10.15,-608.11)">
        <path d="M82.64,676.16L82.72,675.99C82.78,675.99 82.86,675.99 82.88,676.08C82.9,676.17 82.88,676.19 82.81,676.24L82.64,676.16Z" style="fill-rule:nonzero;"/>
    </g>
    <g transform="matrix(1,0,0,1,-10.15,-608.11)">
        <path d="M236.41,694.13L236.15,693.79L236.68,693.54L236.85,693.96L236.41,694.13Z" style="fill-rule:nonzero;"/>
    </g>
    <g transform="matrix(1,0,0,1,-10.15,-608.11)">
        <path d="M136.9,714.32L136.73,714.46L136.65,714.17L136.86,714.11L136.9,714.32Z" style="fill-rule:nonzero;"/>
    </g>
    <g transform="matrix(1,0,0,1,-10.15,-608.11)">
        <path d="M234.66,693.69L234.24,693.86C234.18,693.71 234.07,693.55 234.1,693.43C234.13,693.31 234.39,693.25 234.48,693.29C234.57,693.33 234.6,693.54 234.66,693.69Z" style="fill-rule:nonzero;"/>
    </g>
    <g transform="matrix(1,0,0,1,-10.15,-608.11)">
        <path d="M231.77,691.24C231.678,691.318 231.577,691.385 231.47,691.44C231.363,691.495 231.3,691.36 231.31,691.34C231.348,691.227 231.395,691.116 231.45,691.01L231.77,691.24Z" style="fill-rule:nonzero;"/>
    </g>
    <g transform="matrix(1,0,0,1,-10.15,-608.11)">
        <path d="M178.55,705.25L178.3,705.55C178.215,705.464 178.138,705.37 178.07,705.27C178.002,705.17 178.15,705.1 178.18,705.11C178.309,705.141 178.433,705.188 178.55,705.25Z" style="fill-rule:nonzero;"/>
    </g>
    <g transform="matrix(1,0,0,1,-10.15,-608.11)">
        <path d="M234.46,690L234.78,690.29L234.31,690.63C234.25,690.5 234.12,690.36 234.14,690.25C234.16,690.14 234.34,690 234.46,690Z" style="fill-rule:nonzero;"/>
    </g>
    <g transform="matrix(1,0,0,1,-10.15,-608.11)">
        <path d="M359.82,813.85C359.57,814.22 359.38,814.71 359.21,814.7C358.661,814.688 358.121,814.565 357.62,814.34C354.78,812.98 352.1,811.04 349.12,810.34C343.52,808.98 337.76,807.65 332.05,807.55C326.05,807.44 319.71,807.86 314.14,809.8C309.9,811.28 306.7,810.7 303.14,809.27C302.46,809 301.99,808.21 301.42,807.66C302.144,807.529 302.886,807.529 303.61,807.66C307.51,809.29 311.28,808.41 315.14,807.4C326.01,804.54 336.95,804.4 347.71,807.74C351.58,808.96 355.13,811.25 358.81,813.06C359.17,813.293 359.508,813.557 359.82,813.85Z" style="fill-rule:nonzero;"/>
    </g>
    <g transform="matrix(1,0,0,1,-10.15,-608.11)">
        <path d="M123.81,672.69C123.4,673.69 122.09,673.83 121.25,673.69C120.41,673.55 119.43,672.69 118.53,672.22C118.84,671.99 119.25,671.52 119.46,671.59C122.11,672.48 122.76,670.4 123.25,668.76C123.657,666.738 123.951,664.695 124.13,662.64C124.25,661.94 124.72,660.46 125.06,660.64C125.4,660.82 125.51,661.64 125.53,662.64C125.566,663.736 125.509,664.833 125.36,665.92C125.116,668.231 124.596,670.504 123.81,672.69Z" style="fill-rule:nonzero;"/>
    </g>
    <g transform="matrix(1,0,0,1,-10.15,-608.11)">
        <path d="M115.83,675.88C115.438,676.169 114.998,676.386 114.53,676.52C112.68,675.52 110.86,674.38 109.08,673.22C108.9,673.11 108.99,672.43 109.08,672.07C109.08,671.93 109.71,671.8 109.89,671.91C111.267,673.232 112.826,674.35 114.52,675.23C114.931,675.496 115.37,675.714 115.83,675.88Z" style="fill-rule:nonzero;"/>
    </g>
    <g transform="matrix(1,0,0,1,-10.15,-608.11)">
        <path d="M139.5,633.38C139.59,634.38 139.68,635.38 139.75,636.32L139.32,636.38C139.13,635.38 138.95,634.45 138.78,633.48L139.5,633.38Z" style="fill-rule:nonzero;"/>
    </g>
    <g transform="matrix(1,0,0,1,-10.15,-608.11)">
        <path d="M113.9,662C113.51,662.32 113.28,662.65 113.06,662.64C112.84,662.63 112.47,662.29 112.47,662.09C112.531,661.801 112.741,661.565 113.02,661.47C113.21,661.4 113.48,661.71 113.9,662Z" style="fill-rule:nonzero;"/>
    </g>
    <g transform="matrix(1,0,0,1,-10.15,-608.11)">
        <path d="M114.55,670.21C114.38,669.7 114.14,669.34 114.22,669.08C114.357,668.78 114.635,668.566 114.96,668.51C115.14,668.51 115.49,668.86 115.55,669.1C115.61,669.34 115.21,669.5 114.55,670.21Z" style="fill-rule:nonzero;"/>
    </g>
    <g transform="matrix(1,0,0,1,-10.15,-608.11)">
        <path d="M112.43,660.29C112.13,660.46 111.88,660.7 111.72,660.65C111.56,660.6 111.32,660.31 111.13,660.12C111.31,659.97 111.48,659.71 111.66,659.7C111.84,659.69 112,660 112.43,660.29Z" style="fill-rule:nonzero;"/>
    </g>
    <g transform="matrix(1,0,0,1,-10.15,-608.11)">
        <path d="M114.11,658.82C114.28,659.06 114.51,659.23 114.51,659.4C114.51,659.57 114.29,659.75 114.17,659.92L113.59,659.3L114.11,658.82Z" style="fill-rule:nonzero;"/>
    </g>
    <g transform="matrix(1,0,0,1,-10.15,-608.11)">
        <path d="M88.79,660.53L91.79,653.38L92.86,653.95L88.74,660.5L88.79,660.53Z" style="fill-rule:nonzero;"/>
    </g>
    <g transform="matrix(1,0,0,1,-10.15,-608.11)">
        <path d="M92.63,650.27L94.12,647.42C94.26,647.8 94.6,648.26 94.5,648.55C94.1,649.64 93.57,650.68 93.08,651.74L92.63,650.27Z" style="fill-rule:nonzero;"/>
    </g>
</svg>
