<?xml version="1.0" encoding="UTF-8" standalone="no"?><!DOCTYPE svg PUBLIC "-//W3C//DTD SVG 1.1//EN" "http://www.w3.org/Graphics/SVG/1.1/DTD/svg11.dtd"><svg width="100%" height="100%" viewBox="0 0 1018 376" version="1.1" xmlns="http://www.w3.org/2000/svg" xmlns:xlink="http://www.w3.org/1999/xlink" xml:space="preserve" xmlns:serif="http://www.serif.com/" style="fill-rule:evenodd;clip-rule:evenodd;stroke-linecap:round;stroke-linejoin:round;stroke-miterlimit:1.5;"><path d="M146.415,101.383c-13.712,1.247 -88.697,20.784 -96.277,30.258c-0.506,0.633 -31.058,16.189 -24.069,48.138c1.244,5.687 66.317,0.555 84.586,-7.565c41.347,-18.376 53.183,8.256 55.015,12.378c3.605,8.112 11.672,48.723 -11.003,62.58c-27.752,16.96 -57.144,15.464 -81.148,26.132c-1.238,0.55 -5.689,1.292 -6.189,1.375" style="fill:none;stroke:#000;stroke-width:12.92px;"/><path d="M191.803,93.13c60.607,-24.243 67.959,133.534 59.829,141.664c-8.804,8.804 -6.269,11.947 -17.88,15.817c-26.834,8.945 -36.372,0.852 -52.952,-35.072c-3.119,-6.758 -28.805,-98.952 -2.751,-115.532c1.291,-0.821 1.297,-0.662 13.754,-4.814" style="fill:none;stroke:#000;stroke-width:12.92px;"/><path d="M233.064,60.809c0,109.163 24.772,139.435 26.82,211.121c0.009,0.324 0.418,0.868 0.688,0.688c0.557,-0.371 0.102,-0.611 1.375,-8.252" style="fill:none;stroke:#000;stroke-width:12.92px;"/><path d="M235.127,62.184c32.915,-14.962 83.06,-9.235 83.898,19.255c1.06,36.052 -9.238,44.133 -63.268,59.141c67.046,-30.65 76.868,-17.373 90.087,17.88c21.531,57.417 -100.685,101.278 -106.592,105.217c-0.205,0.136 -3.376,2.251 -1.375,-2.751c0.238,-0.596 0.306,-0.509 4.126,-6.877" style="fill:none;stroke:#000;stroke-width:12.92px;"/><path d="M343.782,62.184c-1.655,43.035 23.522,92.858 24.069,119.658c0.071,3.473 -0.505,43.003 0.688,45.388c0.719,1.438 1.318,15.814 1.375,17.192" style="fill:none;stroke:#000;stroke-width:12.92px;"/><path d="M344.47,64.935c5.17,-4.136 76.645,-12.811 91.463,7.565c44.83,61.642 -3.884,86.979 -58.454,107.967c52.456,1.639 89.23,20.065 112.094,25.445c3.481,0.819 3.053,1.272 41.261,17.192" style="fill:none;stroke:#000;stroke-width:12.92px;"/><path d="M539.774,37.427c-3.592,8.979 -85.5,22.276 -88.024,26.82c-0.743,1.338 26.746,132.53 28.883,132.724c14.163,1.288 30.455,-23.269 71.52,-30.258c24.241,-4.126 110.713,-4.126 120.346,-4.126" style="fill:none;stroke:#000;stroke-width:12.92px;"/><path d="M548.026,89.692c-13.674,-1.243 -77.264,21.561 -80.46,24.757" style="fill:none;stroke:#000;stroke-width:12.92px;"/><path d="M680.063,258.176c-1.794,-21.524 -16.505,-88.558 -16.505,-136.85c-0,-44.293 -13.005,-72.17 -14.442,-78.397c2.951,9.908 14.329,48.105 55.703,116.602c0.812,-10.162 5.176,-64.793 17.469,-126.233c10.684,37.852 45.639,141.085 62.991,167.112c29.496,44.244 25.445,117.205 25.445,63.955" style="fill:none;stroke:#000;stroke-width:12.92px;"/><path d="M814.163,45.68c0.84,6.825 -0.84,13.805 0,20.631c1.215,9.872 26.173,108.778 35.76,137.538" style="fill:none;stroke:#000;stroke-width:12.92px;"/><path d="M915.941,187.344c-3.621,7.242 -40.056,5.558 -62.58,13.066c-29.398,9.799 -28.611,11.107 -58.454,18.568" style="fill:none;stroke:#000;stroke-width:12.92px;"/><path d="M891.184,71.124c-6.286,-0.571 -5.558,-3.29 -76.334,-19.943c-65.236,-15.35 -71.187,-12.212 -81.148,-17.192" style="fill:none;stroke:#000;stroke-width:12.92px;"/><path d="M785.28,31.926c0.829,-4.147 11.578,-19.466 22.694,-21.318" style="fill:none;stroke:#000;stroke-width:12.92px;"/><path d="M1008.779,310.44c-26.773,-6.693 -32.205,-4.814 -105.904,-4.814c-146.76,-0 -146.456,-9.305 -292.956,-0.688c-176.04,10.355 -313.165,-6.571 -546.026,11.003c-6.694,0.505 -6.708,-2.3 -83.898,1.375c-5.22,0.249 -4.222,1.759 -5.502,6.877" style="fill:none;stroke:#000;stroke-width:12.92px;"/><path d="M8.877,354.453c4.865,-4.865 6.221,2.751 85.961,2.751c571.177,-0 571.471,0.734 594.853,-5.502c15.603,-4.161 118.446,-13.357 124.472,-15.129c26.748,-7.867 140.456,0.326 151.98,-6.877" style="fill:none;stroke:#000;stroke-width:12.92px;"/></svg>